<svg width="502" height="246" viewBox="0 0 502 246" fill="none" xmlns="http://www.w3.org/2000/svg">
<path d="M24.884 243.729C24.884 243.729 -17.1705 191.616 8.06291 142.022C33.2963 92.4278 81.2352 104.196 148.519 53.7641C230.205 -7.46161 287.561 -10.8267 360.467 15.9389C401.678 31.069 408.409 93.27 474.008 131.934C533.146 166.79 484.941 226.076 453.823 235.321C422.706 244.567 401.678 244.567 401.678 244.567L24.884 243.729Z" fill="#008DD0" fill-opacity="0.5"/>
<path d="M275.252 131.689C264.755 152.985 251.596 211.169 248.006 214.358C244.415 217.547 223.68 229.902 220.089 235.88C216.499 241.858 218.094 239.864 219.69 240.263C221.285 240.663 311.408 241.059 311.408 241.059C311.408 241.059 301.04 179.286 299.845 178.886C298.653 178.49 275.252 131.689 275.252 131.689Z" fill="#A2DFF2"/>
<path d="M260.329 240.771C276.88 240.886 294.349 240.976 303.964 241.023L290.798 162.338C283.776 148.734 275.252 131.686 275.252 131.686C273.93 134.371 272.562 137.642 271.179 141.313C269.814 200.412 278.331 216.974 271.932 227.505C266.94 235.725 262.385 239.403 260.329 240.771Z" fill="#96CFE0"/>
<path d="M447.457 245.003H14.6855C12.8417 245.003 11.3472 243.51 11.3472 241.667C11.3472 239.824 12.8417 238.331 14.6855 238.331H447.457C449.3 238.331 450.795 239.824 450.795 241.667C450.795 243.51 449.3 245.003 447.457 245.003Z" fill="#2E5B9A"/>
<path d="M330.523 105.989C345.493 119.799 378.811 132.895 378.811 132.895C378.811 132.895 383.874 179.639 380.421 206.109C376.967 232.576 378.887 237.946 378.887 237.946H310.18C310.18 237.946 300.961 225.158 284.079 185.393C273.333 160.078 275.252 131.69 275.252 131.69L317.091 112.892L330.523 105.989Z" fill="#A2DFF2"/>
<path d="M310.18 237.942H378.883C378.883 237.942 376.964 232.572 380.417 206.105C383.262 184.31 380.331 148.77 379.207 136.897L372.959 134.219C357.272 138.736 348.233 162.119 345.576 184.969C343.797 200.257 318.452 215.308 301.872 223.596C307.32 233.976 310.18 237.942 310.18 237.942Z" fill="#96CFE0"/>
<path d="M293.337 58.0076C285.054 76.4415 294.997 93.5186 294.695 92.7988C294.392 92.079 307.23 61.6749 307.23 61.6749L293.337 58.0076Z" fill="#2E5B9A"/>
<path d="M324.721 71.6406L335.226 110.009C335.521 111.093 335.269 112.244 334.563 113.119C332.1 116.153 328.592 122.39 321.516 124.391C320.14 124.779 318.444 124.884 317.072 124.887C315.628 124.891 314.386 123.876 314.112 122.462L307.072 86.0725L324.721 71.6406Z" fill="#F09959"/>
<path d="M322.715 74.8474L318.876 76.4202L307.072 86.0726L313.406 118.337C324.152 111.64 325.719 107.123 322.715 74.8474Z" fill="#E38540"/>
<path d="M324.336 88.6133C322.01 101.235 312.56 109.772 303.23 107.681C293.895 105.59 289.444 97.4199 290.539 81.041C291.4 68.1891 297.738 54.2215 307.072 56.3161C316.403 58.4035 326.659 75.9917 324.336 88.6133Z" fill="#F09959"/>
<path d="M378.811 132.892C392.712 136.03 395.294 164.246 399.813 194.006C400.332 197.432 403.004 226.422 403.004 226.422C403.004 226.422 403.27 231.737 397.951 234.393C393.407 236.664 391.57 238.377 365.249 238.644C339.969 238.899 307.378 237.848 307.378 237.848C307.378 237.848 307.09 228.448 309.683 223.856C313.583 216.946 353.552 207.027 357.272 206.498C357.805 199.059 353.603 172.138 359.401 153.888C363.387 141.335 367.676 134.756 373.046 133.039C374.839 132.46 376.751 132.427 378.811 132.892Z" fill="#A2DFF2"/>
<path d="M321.675 238.421C334.138 238.608 351.24 238.788 365.253 238.644C391.574 238.377 393.41 236.664 397.955 234.393C403.274 231.737 403.537 227.221 403.537 227.221C403.537 227.221 400.85 196.374 400.346 192.944C397.422 173.016 394.26 150.213 386.907 139.204C393.821 159.456 394.934 176.54 395.056 183.839C395.117 187.535 394.779 192.595 393.698 196.133C392.503 200.052 389.445 202.51 384.659 201.182C375.087 198.526 363.124 204.104 363.124 204.104C363.124 204.104 372.163 200.916 380.673 203.838C389.182 206.76 406.727 226.159 387.587 233.332C381.728 235.523 346.642 237.316 321.675 238.421Z" fill="#96CFE0"/>
<path d="M311.811 224.737C311.811 224.737 315.355 218.716 322.622 218.716C329.889 218.716 329.356 230.586 328.294 234.48C327.231 238.377 322.975 238.554 322.975 238.554L307.378 237.845L311.811 224.737Z" fill="#96CFE0"/>
<path d="M296.002 241.26H197.672C196.188 241.26 194.975 240.047 194.975 238.565V237.791C194.975 236.308 196.188 235.095 197.672 235.095H295.998C297.482 235.095 298.696 236.308 298.696 237.791V238.565C298.696 240.047 297.482 241.26 296.002 241.26Z" fill="#75A1DE"/>
<path d="M309.863 225.446C294.619 219.954 290.622 222.024 287.175 221.02C278.666 218.54 276.541 220.667 271.046 235.721C269.951 238.723 273.174 238.91 276.365 238.91C279.555 238.91 283.455 232.709 284.694 232C285.937 231.291 289.304 230.938 289.304 230.938C289.304 230.938 288.241 230.938 286.646 234.127C285.051 237.316 283.102 238.554 285.584 238.554C288.065 238.554 288.421 234.48 293.027 235.365C297.637 236.25 295.865 238.554 307.385 238.377C318.905 238.201 327.602 238.377 327.415 231.467C327.238 224.914 327.962 221.635 321.743 220.483C316.953 219.602 309.863 225.446 309.863 225.446Z" fill="#F09959"/>
<path d="M310.061 225.446C320.252 224.294 317.263 236.981 316.197 238.046C315.135 239.108 321.873 238.42 321.873 238.42C321.873 238.42 325.038 233.332 322.38 227.487C319.723 221.642 314.404 221.376 314.404 221.376L309.884 223.855L310.061 225.446Z" fill="#A86B48"/>
<path d="M320.702 224.341C320.569 225.914 317.897 226.972 314.731 226.71C311.566 226.447 309.103 224.957 309.236 223.384C309.366 221.811 312.041 220.75 315.207 221.016C318.376 221.282 320.835 222.769 320.702 224.341Z" fill="#2E5B9A"/>
<path d="M319.892 223.56C319.773 224.964 317.386 225.914 314.555 225.677C311.725 225.439 309.528 224.111 309.647 222.704C309.766 221.3 312.153 220.35 314.984 220.588C317.811 220.825 320.011 222.157 319.892 223.56Z" fill="#3E6BAB"/>
<path d="M318.124 222.909C318.041 223.92 316.32 224.6 314.285 224.431C312.247 224.262 310.666 223.305 310.749 222.294C310.832 221.282 312.553 220.602 314.591 220.771C316.626 220.94 318.21 221.898 318.124 222.909Z" fill="#F0CEB4"/>
<path d="M194.075 221.793H95.0247C89.8138 221.793 85.3483 218.022 84.4048 212.828L71.4874 141.561C70.2702 134.842 75.3623 128.645 82.1073 128.645H181.161C186.372 128.645 190.841 132.416 191.781 137.61L204.698 208.877C205.916 215.6 200.82 221.793 194.075 221.793Z" fill="#75A1DE"/>
<path d="M198.706 209.147L185.518 139.355C184.556 134.27 179.997 130.577 174.678 130.577H74.0185C71.9046 133.028 70.8494 136.386 71.4904 139.884L84.8616 212.645C85.8375 217.946 90.4614 221.797 95.8524 221.797H187.862C194.748 221.793 199.948 215.729 198.706 209.147Z" fill="#A8CEFF"/>
<path d="M174.819 231.338H156.014C152.661 231.338 149.942 228.354 149.942 224.672V190.313C149.942 184.454 145.613 179.703 140.276 179.703H130.452C125.115 179.703 120.787 184.454 120.787 190.313V228.79C120.787 235.369 125.666 240.691 131.659 240.652L182.979 240.299C182.983 235.351 179.328 231.338 174.819 231.338Z" fill="#75A1DE"/>
<path d="M121.54 191.083V228.973C121.54 235.142 126.322 240.184 132.375 240.62L182.461 240.306C182.457 239.486 178.507 237.992 173.631 237.992H153.291C149.665 237.992 146.723 235.052 146.723 231.428V191.083C146.723 185.314 142.041 180.635 136.268 180.635H131.997C126.221 180.635 121.54 185.314 121.54 191.083Z" fill="#A8CEFF"/>
<path d="M226.373 226.972C233.943 222.769 243.194 224.172 246.558 228.372C249.921 232.576 250.48 235.376 242.91 235.376C235.34 235.376 220.204 235.937 217.68 235.657C215.159 235.376 226.373 226.972 226.373 226.972Z" fill="#F09959"/>
<path d="M237.584 224.449C245.712 222.488 251.268 227.217 258.049 231.734C263.937 235.657 265.118 239.468 258.611 236.218C249.079 231.457 243.472 230.895 243.472 230.895L237.584 224.449Z" fill="#F09959"/>
<path d="M230.18 226.947C226.074 226.947 222.491 225.637 219.592 225.878C216.693 226.119 207.518 235.531 208.965 236.258C209.07 236.308 209.181 236.358 209.304 236.401C211.483 237.204 213.942 236.315 215.17 234.346C216.47 232.263 218.58 229.841 221.04 230.708C225.145 232.155 229.452 232.018 229.452 232.018L230.18 226.947Z" fill="#F09959"/>
<path d="M227.774 237.057C223.568 235.376 230.299 221.369 232.539 221.369C234.782 221.369 243.191 228.092 243.191 228.092C243.191 228.092 241.214 229.207 234.501 226.972C232.819 226.411 231.419 235.937 229.456 237.057C227.493 238.179 227.774 237.057 227.774 237.057Z" fill="#F7A96F"/>
<path d="M290.532 88.4154C290.143 103.841 295.401 106.45 299.077 108.544C302.758 110.639 318.603 107.18 320.926 103.366C326.875 93.6051 321.869 84.5033 323.198 84.6437C324.531 84.7805 325.748 88.581 329.216 93.5116C329.54 93.9722 331.794 97.017 331.913 96.0056C333.523 82.1928 340.721 77.9028 339.007 63.9316C337.743 53.6314 331.204 54.4483 331.204 54.4483C331.204 54.4483 326.983 45.8288 313.846 46.8077C305.045 47.4627 297.198 50.8889 288.126 53.2247C279.055 55.5568 298.861 76.1105 310.63 68.6031C322.399 61.0956 316.586 77.6329 318.445 78.9177C320.303 80.199 319.338 79.0869 320.188 87.5517C321.037 96.0164 310.284 101.541 307.202 102.264C297.345 104.582 295.7 102.955 293.539 99.2483C291.666 96.0272 290.532 88.4154 290.532 88.4154Z" fill="#2E5B9A"/>
<path d="M331.326 83.6395C330.195 87.5264 327.433 90.0385 325.153 89.2503C322.874 88.4621 322.809 85.3022 323.075 80.7819C323.317 76.7079 326.968 74.3829 329.248 75.1711C331.527 75.9593 332.456 79.7526 331.326 83.6395Z" fill="#F09959"/>
<path d="M115.958 73.2026H31.8162C30.9015 73.2026 30.1597 72.4612 30.1597 71.547V35.3594C30.1597 34.4452 30.9015 33.7039 31.8162 33.7039H115.958C116.872 33.7039 117.614 34.4452 117.614 35.3594V71.5434C117.614 72.4612 116.872 73.2026 115.958 73.2026Z" fill="#B7E1FF"/>
<path d="M113.883 71.349H33.8904C33.1522 71.349 32.5508 70.748 32.5508 70.0102V45.4184C32.5508 44.6806 33.1486 44.0796 33.8904 44.0796H113.887C114.625 44.0796 115.227 44.6806 115.227 45.4184V70.0102C115.223 70.748 114.625 71.349 113.883 71.349Z" fill="white"/>
<path d="M36.4473 39.6889H34.5062C34.0957 39.6889 33.7644 39.3578 33.7644 38.9475V37.3495C33.7644 36.9393 34.0957 36.6082 34.5062 36.6082H36.4473C36.8578 36.6082 37.1891 36.9393 37.1891 37.3495V38.9475C37.1891 39.3578 36.8578 39.6889 36.4473 39.6889Z" fill="white"/>
<path d="M42.6773 39.6889H40.7362C40.3257 39.6889 39.9944 39.3578 39.9944 38.9475V37.3495C39.9944 36.9393 40.3257 36.6082 40.7362 36.6082H42.6773C43.0878 36.6082 43.4191 36.9393 43.4191 37.3495V38.9475C43.4191 39.3578 43.0878 39.6889 42.6773 39.6889Z" fill="white"/>
<path d="M48.9075 39.6889H46.9665C46.5559 39.6889 46.2246 39.3578 46.2246 38.9475V37.3495C46.2246 36.9393 46.5559 36.6082 46.9665 36.6082H48.9075C49.318 36.6082 49.6493 36.9393 49.6493 37.3495V38.9475C49.6493 39.3578 49.318 39.6889 48.9075 39.6889Z" fill="white"/>
<path d="M111.86 50.0577H68.1305C67.4102 50.0577 66.8232 49.471 66.8232 48.7512C66.8232 48.0315 67.4102 47.4448 68.1305 47.4448H111.86C112.58 47.4448 113.167 48.0315 113.167 48.7512C113.167 49.4674 112.58 50.0577 111.86 50.0577Z" fill="#B7E1FF"/>
<path d="M78.9701 70.2261H35.2374C34.5172 70.2261 33.9302 69.6395 33.9302 68.9197C33.9302 68.1999 34.5172 67.6133 35.2374 67.6133H78.9665C79.6867 67.6133 80.2737 68.1999 80.2737 68.9197C80.2773 69.6395 79.6903 70.2261 78.9701 70.2261Z" fill="#B7E1FF"/>
<path d="M87.0258 70.2261H82.5027C82.2578 70.2261 82.0562 70.0246 82.0562 69.7799V68.0596C82.0562 67.8148 82.2578 67.6133 82.5027 67.6133H87.0258C87.2707 67.6133 87.4723 67.8148 87.4723 68.0596V69.7799C87.4723 70.0246 87.2707 70.2261 87.0258 70.2261Z" fill="#B7E1FF"/>
<path d="M93.8463 70.2261H89.3196C89.0747 70.2261 88.873 70.0246 88.873 69.7799V68.0596C88.873 67.8148 89.0747 67.6133 89.3196 67.6133H93.8463C94.0911 67.6133 94.2928 67.8148 94.2928 68.0596V69.7799C94.2928 70.0246 94.0911 70.2261 93.8463 70.2261Z" fill="#B7E1FF"/>
<path d="M112.281 55.7512H39.8649C39.3751 55.7512 38.979 55.3517 38.979 54.8658C38.979 54.3764 39.3787 53.9805 39.8649 53.9805H112.281C112.771 53.9805 113.17 54.38 113.17 54.8658C113.167 55.3553 112.771 55.7512 112.281 55.7512Z" fill="#B7E1FF"/>
<path d="M112.281 59.5805H39.8649C39.3751 59.5805 38.979 59.181 38.979 58.6952C38.979 58.2093 39.3787 57.8098 39.8649 57.8098H112.281C112.771 57.8098 113.17 58.2093 113.17 58.6952C113.17 59.181 112.771 59.5805 112.281 59.5805Z" fill="#B7E1FF"/>
<path d="M135.721 100.936H51.5794C50.6647 100.936 49.9229 100.195 49.9229 99.277V63.093C49.9229 62.1788 50.6647 61.4338 51.5794 61.4338H135.721C136.636 61.4338 137.381 62.1752 137.381 63.093V99.277C137.377 100.195 136.636 100.936 135.721 100.936Z" fill="#9EC8FF"/>
<path d="M133.647 99.0827H53.6502C52.9119 99.0827 52.3105 98.4816 52.3105 97.7438V73.1521C52.3105 72.4143 52.9119 71.8132 53.6502 71.8132H133.647C134.385 71.8132 134.986 72.4143 134.986 73.1521V97.7438C134.986 98.4816 134.385 99.0827 133.647 99.0827Z" fill="white"/>
<path d="M56.2105 67.4262H54.2694C53.8589 67.4262 53.5276 67.0951 53.5276 66.6848V65.0868C53.5276 64.6766 53.8589 64.3455 54.2694 64.3455H56.2105C56.621 64.3455 56.9523 64.6766 56.9523 65.0868V66.6848C56.9523 67.0915 56.621 67.4262 56.2105 67.4262Z" fill="white"/>
<path d="M62.4404 67.4262H60.4994C60.0889 67.4262 59.7576 67.0951 59.7576 66.6848V65.0868C59.7576 64.6766 60.0889 64.3455 60.4994 64.3455H62.4404C62.851 64.3455 63.1823 64.6766 63.1823 65.0868V66.6848C63.1823 67.0915 62.8474 67.4262 62.4404 67.4262Z" fill="white"/>
<path d="M68.667 67.4262H66.726C66.3154 67.4262 65.9841 67.0951 65.9841 66.6848V65.0868C65.9841 64.6766 66.3154 64.3455 66.726 64.3455H68.667C69.0775 64.3455 69.4089 64.6766 69.4089 65.0868V66.6848C69.4125 67.0915 69.0775 67.4262 68.667 67.4262Z" fill="white"/>
<path d="M131.623 77.7913H87.89C87.1698 77.7913 86.5828 77.2047 86.5828 76.4849C86.5828 75.7651 87.1734 75.1785 87.89 75.1785H131.623C132.343 75.1785 132.93 75.7651 132.93 76.4849C132.93 77.2011 132.343 77.7913 131.623 77.7913Z" fill="#9EC8FF"/>
<path d="M98.7296 97.96H55.0006C54.2803 97.96 53.6934 97.3734 53.6934 96.6536C53.6934 95.9338 54.2803 95.3472 55.0006 95.3472H98.7296C99.4499 95.3472 100.037 95.9338 100.037 96.6536C100.04 97.3734 99.4499 97.96 98.7296 97.96Z" fill="#9EC8FF"/>
<path d="M106.785 97.96H102.259C102.014 97.96 101.812 97.7585 101.812 97.5137V95.7934C101.812 95.5487 102.014 95.3472 102.259 95.3472H106.785C107.03 95.3472 107.232 95.5487 107.232 95.7934V97.5137C107.235 97.7621 107.034 97.96 106.785 97.96Z" fill="#9EC8FF"/>
<path d="M113.606 97.96H109.083C108.838 97.96 108.636 97.7585 108.636 97.5137V95.7934C108.636 95.5487 108.838 95.3472 109.083 95.3472H113.606C113.851 95.3472 114.052 95.5487 114.052 95.7934V97.5137C114.056 97.7621 113.854 97.96 113.606 97.96Z" fill="#9EC8FF"/>
<path d="M132.044 83.4848H59.6244C59.1347 83.4848 58.7385 83.0853 58.7385 82.5995C58.7385 82.11 59.1383 81.7141 59.6244 81.7141H132.04C132.53 81.7141 132.926 82.1136 132.926 82.5995C132.93 83.0889 132.53 83.4848 132.044 83.4848Z" fill="#9EC8FF"/>
<path d="M132.044 87.3142H59.6244C59.1347 87.3142 58.7385 86.9147 58.7385 86.4288C58.7385 85.9393 59.1383 85.5435 59.6244 85.5435H132.04C132.53 85.5435 132.926 85.9429 132.926 86.4288C132.93 86.9147 132.53 87.3142 132.044 87.3142Z" fill="#9EC8FF"/>
<path d="M168.492 91.2695C168.492 97.5353 163.41 102.617 157.141 102.617C150.871 102.617 145.79 97.5389 145.79 91.2695C145.79 85.0037 150.871 79.9255 157.141 79.9255C163.41 79.9255 168.492 85.0037 168.492 91.2695Z" fill="#9CD499"/>
<path d="M156.014 95.4621C156.003 95.4621 155.992 95.4621 155.981 95.4621C155.743 95.4549 155.52 95.347 155.365 95.1706L152.283 91.6688C151.966 91.3089 152.002 90.7655 152.362 90.4488C152.718 90.132 153.266 90.168 153.583 90.5279L156.064 93.3459L161.999 87.5408C162.341 87.2061 162.888 87.2133 163.219 87.5552C163.554 87.8971 163.547 88.4441 163.205 88.7752L156.619 95.2174C156.457 95.3758 156.237 95.4621 156.014 95.4621Z" fill="white"/>
<path d="M241.232 38.5695H169.046C167.195 38.5695 165.683 37.0579 165.683 35.2081V9.43224C165.683 7.58237 167.195 6.0708 169.046 6.0708H241.228C243.079 6.0708 244.592 7.58237 244.592 9.43224V35.2081C244.595 37.0543 243.079 38.5695 241.232 38.5695Z" fill="#9EC8FF"/>
<path d="M175.215 33.6642V51.5943L195.889 30.9326C195.889 30.9326 175.633 33.6642 175.215 33.6642Z" fill="#9EC8FF"/>
<path d="M237.659 35.345H172.615C171.045 35.345 169.763 34.0637 169.763 32.4946V12.1424C169.763 10.5732 171.045 9.29199 172.615 9.29199H237.659C239.229 9.29199 240.511 10.5732 240.511 12.1424V32.4946C240.511 34.0637 239.229 35.345 237.659 35.345Z" fill="white"/>
<path d="M208.292 15.7341H176.335C175.564 15.7341 174.934 15.1043 174.934 14.3341C174.934 13.5639 175.564 12.9341 176.335 12.9341H208.292C209.062 12.9341 209.693 13.5639 209.693 14.3341C209.693 15.1043 209.062 15.7341 208.292 15.7341Z" fill="#9EC8FF"/>
<path d="M234.984 21.0931H175.712C175.283 21.0931 174.934 20.744 174.934 20.3157V20.3013C174.934 19.873 175.283 19.5239 175.712 19.5239H234.984C235.412 19.5239 235.761 19.873 235.761 20.3013V20.3157C235.765 20.7404 235.412 21.0931 234.984 21.0931Z" fill="#9EC8FF"/>
<path d="M234.984 24.1414H175.712C175.283 24.1414 174.934 23.7923 174.934 23.364V23.3496C174.934 22.9214 175.283 22.5723 175.712 22.5723H234.984C235.412 22.5723 235.761 22.9214 235.761 23.3496V23.364C235.765 23.7887 235.412 24.1414 234.984 24.1414Z" fill="#9EC8FF"/>
<path d="M222.732 34.2258H220.791C220.381 34.2258 220.05 33.8946 220.05 33.4844V31.8864C220.05 31.4761 220.381 31.145 220.791 31.145H222.732C223.143 31.145 223.474 31.4761 223.474 31.8864V33.4844C223.478 33.8946 223.143 34.2258 222.732 34.2258Z" fill="#9EC8FF"/>
<path d="M228.962 34.2257H227.021C226.611 34.2257 226.28 33.8946 226.28 33.4844V31.8864C226.28 31.4761 226.611 31.145 227.021 31.145H228.962C229.373 31.145 229.704 31.4761 229.704 31.8864V33.4844C229.704 33.8946 229.373 34.2257 228.962 34.2257Z" fill="#9EC8FF"/>
<path d="M235.193 34.2257H233.252C232.841 34.2257 232.51 33.8946 232.51 33.4844V31.8864C232.51 31.4761 232.841 31.145 233.252 31.145H235.193C235.603 31.145 235.934 31.4761 235.934 31.8864V33.4844C235.934 33.8946 235.603 34.2257 235.193 34.2257Z" fill="#9EC8FF"/>
</svg>
