<svg width="50" height="50" viewBox="0 0 50 50" fill="none" xmlns="http://www.w3.org/2000/svg">
<path d="M47.7017 0.475952H15.6814C16.5033 1.46384 16.9985 2.73269 16.9985 4.1153C16.9985 5.6151 16.4152 6.98072 15.4647 7.99928C17.7003 8.25611 19.5994 9.70699 20.4318 11.8102L21.509 9.98492C22.1481 8.90221 23.3268 8.22945 24.585 8.22945C24.7749 8.22945 24.9635 8.24654 25.15 8.27662L25.4794 6.51852C25.5921 5.91666 26.1711 5.52028 26.7733 5.63288C27.3751 5.74557 27.7716 6.32496 27.6589 6.92682C27.196 9.39713 27.2257 9.26265 27.1952 9.3647C28.2299 10.4717 28.494 12.196 27.6573 13.6136L22.4594 22.4204C21.7515 23.6198 20.3792 24.3213 18.9589 24.1501C18.6837 24.117 18.4173 24.0527 18.1638 23.9603V25.9057H47.7019C48.4647 25.9057 49.083 25.2872 49.083 24.5245V1.8571C49.0828 1.09431 48.4645 0.475952 47.7017 0.475952Z" fill="#3C474C"/>
<path d="M25.5923 10.0893C24.6564 9.53701 23.4348 9.83838 22.873 10.79L19.9758 15.699L19.0875 12.762C18.5051 10.8361 16.762 9.56787 14.75 9.56787C13.7764 9.56787 6.85253 9.56787 6.85253 9.56787C4.72773 9.58418 2.90498 11.0688 2.45508 13.1807C2.2875 13.967 1.10889 19.4987 0.961138 20.1923C0.727935 21.2867 1.4461 22.3599 2.54883 22.5598L9.02528 23.7346C10.1028 23.9303 11.1375 23.2153 11.3335 22.1352C11.5293 21.0562 10.8132 20.0228 9.73407 19.827L5.27197 19.0177C5.58027 17.5708 5.77275 16.6671 6.0623 15.3083V17.4229L10.0393 18.1443C12.0477 18.5086 13.3805 20.432 13.0162 22.4403C12.6519 24.449 10.7279 25.7814 8.72021 25.4172L6.04072 24.935C6.04072 30.6753 6.04072 47.6168 6.04072 47.6168C6.04072 48.9328 7.08593 49.9996 8.40185 49.9996C9.71776 49.9996 10.7847 48.9329 10.7847 47.6168V30.1552H11.8135V47.6171C11.8135 48.9331 12.8803 49.9999 14.1963 49.9999C15.5123 49.9999 16.5791 48.9332 16.5791 47.6171V18.1889L17.4849 21.181C17.7131 21.9355 18.3659 22.4836 19.1483 22.5777C19.9284 22.6717 20.6937 22.296 21.0954 21.6155L26.2932 12.8087C26.8505 11.8642 26.5368 10.6467 25.5923 10.0893Z" fill="#3C474C"/>
<path d="M11.2993 0C9.02645 0 7.18398 1.84209 7.18398 4.11532C7.18398 6.38817 9.02645 8.23065 11.2993 8.23065C13.5721 8.23065 15.4146 6.38817 15.4146 4.11532C15.4145 1.829 13.5606 0 11.2993 0Z" fill="#3C474C"/>
</svg>
