<svg width="74" height="75" viewBox="0 0 74 75" fill="none" xmlns="http://www.w3.org/2000/svg">
<path d="M63.608 48.8621C61.2095 46.063 57.9357 44.4749 54.2622 44.4749H47.4233V39.3253C48.9487 37.5936 50.2176 35.6337 51.2112 33.6689C53.1637 33.3455 55.1244 31.3617 56.1441 28.529C57.3901 25.0667 56.8336 21.9591 54.8134 20.8444C55.6623 16.3573 54.4117 10.9984 51.4448 6.96026C48.1471 2.47191 43.0487 0 37.0782 0C31.1074 0 26.0062 2.47216 22.7085 6.96076C19.751 10.9867 18.4889 16.3247 19.3223 20.8028C17.2399 21.8794 16.6289 25.0223 17.8905 28.5292C18.9443 31.4543 20.8724 33.4182 22.8793 33.6841C23.9301 35.7596 25.0505 37.8271 26.8302 39.626V44.4749H19.9071C16.2333 44.4749 12.8746 46.063 10.4762 48.8621C8.24398 51.4675 7 54.9633 7 58.6217V65.6472C7 66.3695 7.435 67.029 8.09805 67.345C18.7505 72.4258 28.8213 74.0003 37.204 74C41.6168 74 45.5684 73.5635 48.8887 72.9727C59.3427 71.1127 65.833 67.4367 66.1071 67.2809C66.702 66.9436 67 66.3207 67 65.6469V58.6214C66.9995 54.9635 65.8404 51.4675 63.608 48.8621ZM39.2877 56.8855C39.2877 57.5999 38.6969 58.1786 37.9683 58.1786H36.0312C35.3023 58.1786 34.7117 57.5996 34.7117 56.8855V54.9872C34.7117 54.2728 35.3026 53.694 36.0312 53.694H37.9683C38.6972 53.694 39.2877 54.2731 39.2877 54.9872V56.8855ZM40.5254 50.5093C39.7965 50.1246 38.9628 49.9564 38.0766 49.9564H36.0917C35.2057 49.9564 34.3718 50.1246 33.6429 50.5093L30.4357 47.3497C30.5735 47.0896 30.6435 46.7692 30.6435 46.4557V43.0926C32.4231 44.3897 34.6817 45.1857 36.9978 45.1857C39.4164 45.1857 41.5756 44.3149 43.6095 42.9139V46.4557C43.6095 46.7016 43.7359 46.961 43.8228 47.1768L40.5254 50.5093ZM25.8386 9.16731C27.6453 6.70786 31.0629 3.77626 37.0843 3.77626C43.1056 3.77626 46.523 6.70761 48.3297 9.16681C51.1405 12.9924 51.649 17.5734 50.949 20.6032C38.3397 23.6263 32.3003 12.0204 32.0514 11.5288C31.6833 10.7923 30.8748 10.3747 30.0437 10.4926C29.2154 10.6109 28.5597 11.2406 28.4209 12.0496C28.4069 12.1316 27.0465 19.3833 23.2284 20.6393C22.5158 17.6111 23.0164 13.0083 25.8386 9.16731ZM21.1373 24.5237C26.4643 24.9363 29.6387 20.4345 31.0337 16.8339C31.8765 17.8739 32.9418 19.0228 34.2356 20.1184C37.9601 23.2727 42.2577 24.881 46.8632 24.881C48.5002 24.881 51.2086 24.6777 52.9118 24.2683C53.0262 24.7744 53.0595 25.8809 52.5586 27.273C51.9812 28.877 51.1443 29.6868 50.7825 29.8964C50.3732 29.7533 49.9229 29.7493 49.5075 29.8899C49.0021 30.0608 48.5918 30.4293 48.3749 30.9082C46.1778 35.7526 41.9026 41.4097 37.084 41.4097C32.2546 41.4097 27.9763 35.7356 25.7797 30.8765C25.5549 30.3797 25.1225 30.0015 24.5926 29.839C24.4048 29.7817 24.211 29.7533 24.0181 29.7533C23.7707 29.7533 23.5246 29.8002 23.2935 29.8921C22.9276 29.6756 22.0986 28.8658 21.5248 27.2732C21.0809 26.0386 21.0577 25.0791 21.1373 24.5237ZM10.8133 58.6217C10.8133 53.6392 14.0449 48.2123 19.9071 48.2123H26.0362L31.1573 53.3068C30.9968 53.7962 30.8979 54.3825 30.8979 54.9239V56.8691C30.8979 58.2865 31.5033 59.5665 32.4602 60.4866L30.7513 69.8891C24.6689 69.2605 17.9319 67.6631 10.8133 64.455V58.6217ZM34.6639 70.1567L36.1342 61.916H38.0341L39.5069 70.1647C37.9616 70.2205 36.3434 70.2255 34.6639 70.1567ZM63.1859 64.5063C61.1521 65.5406 55.6173 67.9484 47.9981 69.2849C46.5625 69.5368 45.0266 69.7566 43.3578 69.9208L41.611 60.4869C42.5676 59.567 43.101 58.2868 43.101 56.8693V54.9241C43.101 54.3827 43.0868 53.7964 42.9264 53.3071L48.1321 48.2125H54.2617C60.1234 48.2125 63.1857 53.6395 63.1857 58.6219V64.5063H63.1859Z" fill="#F2C94C"/>
</svg>
