<svg width="74" height="74" viewBox="0 0 74 74" fill="none" xmlns="http://www.w3.org/2000/svg">
<g clip-path="url(#clip0)">
<path d="M74 48.9096V34.6183H63.5198V25.0908H56.0565V20.3271H63.5198V6.03583H16.6761C7.7106 5.85211 -0.181037 13.7442 0.00316145 22.7091C0.00300266 31.5173 6.86916 38.7511 15.5301 39.3419C12.2825 42.4952 10.4818 46.7624 10.4833 51.2915C10.4833 60.4851 17.9628 67.9646 27.1564 67.9646H74V53.6734H66.5368V48.9096H74ZM16.6761 34.6183C10.1093 34.6183 4.76676 29.2758 4.76676 22.709C4.6356 16.3058 10.2719 10.6678 16.6763 10.7997C16.6761 10.7996 58.756 10.7996 58.756 10.7996V15.5633C54.0802 15.5698 22.064 15.5586 16.6761 15.5633C12.736 15.5633 9.53051 18.7689 9.53051 22.709C9.45223 26.5484 12.8358 29.9342 16.6761 29.8546C22.2453 29.8576 53.8946 29.8525 58.756 29.8546V34.6183C51.128 34.6183 23.7853 34.6183 16.6761 34.6183ZM51.2928 20.3271V25.0908H16.6761C16.0405 25.0908 15.4427 24.8428 14.9923 24.3926C13.4967 22.9214 14.5755 20.3136 16.6761 20.3271H51.2928ZM61.773 44.1459H27.1564C20.8424 44.1305 17.6165 51.8952 22.1043 56.3436C23.454 57.6936 25.2484 58.4371 27.1564 58.4371C32.699 58.4389 64.3937 58.4358 69.2363 58.4371V63.2009H27.1564C20.5896 63.2009 15.247 57.8583 15.247 51.2915C15.1163 44.8885 20.7519 39.2503 27.1566 39.3823C30.8771 39.3808 66.6538 39.3832 69.2363 39.3821V44.1459C67.5747 44.1459 63.4789 44.1459 61.773 44.1459ZM61.773 48.9096V53.6734H27.1564C26.5208 53.6734 25.9229 53.4253 25.4726 52.9752C23.9769 51.5039 25.0558 48.8961 27.1564 48.9096H61.773Z" fill="#F2C94C"/>
</g>
<defs>
<clipPath id="clip0">
<rect width="74" height="74" fill="white"/>
</clipPath>
</defs>
</svg>
