<svg width="164" height="164" viewBox="0 0 164 164" fill="none" xmlns="http://www.w3.org/2000/svg">
<g opacity="0.05">
<path d="M156.312 12.8125H153.75V115.312H87.125V120.438H156.312C156.992 120.438 157.644 120.168 158.124 119.687C158.605 119.206 158.875 118.555 158.875 117.875V15.375C158.875 14.6954 158.605 14.0436 158.124 13.563C157.644 13.0825 156.992 12.8125 156.312 12.8125Z" fill="black"/>
<path d="M25.625 17.9375H30.75V48.6875H35.875V10.25H79.4375C81.4756 10.2523 83.4297 11.063 84.8709 12.5041C86.312 13.9453 87.1227 15.8994 87.125 17.9375V97.375C86.7159 97.0674 86.2886 96.7846 85.8457 96.5281L83.2793 100.964C84.4466 101.641 85.416 102.613 86.0908 103.781C86.7656 104.95 87.1222 106.275 87.125 107.625C87.125 108.305 87.395 108.956 87.8755 109.437C88.3561 109.918 89.0079 110.188 89.6875 110.188H146.062C146.742 110.188 147.394 109.918 147.874 109.437C148.355 108.956 148.625 108.305 148.625 107.625V7.6875C148.625 7.00788 148.355 6.3561 147.874 5.87554C147.394 5.39498 146.742 5.125 146.062 5.125H99.9375C97.9475 5.12515 95.9849 5.58925 94.2057 6.48044C92.4264 7.37164 90.8794 8.66539 89.6875 10.259C88.4956 8.66539 86.9486 7.37164 85.1693 6.48044C83.3901 5.58925 81.4275 5.12515 79.4375 5.125H33.3125C32.6329 5.125 31.9811 5.39498 31.5005 5.87554C31.02 6.3561 30.75 7.00788 30.75 7.6875V12.8125H23.0625C22.3829 12.8125 21.7311 13.0825 21.2505 13.563C20.77 14.0436 20.5 14.6954 20.5 15.375V74.3125H25.625V17.9375ZM92.6908 105.062C93.2221 103.565 94.2039 102.268 95.5013 101.351C96.7988 100.433 98.3484 99.9395 99.9375 99.9375H130.688C131.024 99.9375 131.357 99.8712 131.668 99.7425C131.979 99.6137 132.262 99.425 132.5 99.187L143.5 88.1862V105.062H92.6908ZM133.25 91.1885V84.5625H139.876L133.25 91.1885ZM99.9375 10.25H143.5V79.4375H130.688C130.008 79.4375 129.356 79.7075 128.876 80.188C128.395 80.6686 128.125 81.3204 128.125 82V94.8125H99.9375C97.1638 94.8094 94.4648 95.7112 92.25 97.3811V17.9375C92.2523 15.8994 93.063 13.9453 94.5041 12.5041C95.9453 11.063 97.8994 10.2523 99.9375 10.25V10.25Z" fill="black"/>
<path d="M82 23.0625V17.9375H41V23.0625H66.625V28.1875H41V33.3125H66.625V38.4375H41V43.5625H66.625V74.3125H82V69.1875H71.75V64.0625H82V58.9375H71.75V53.8125H82V48.6875H71.75V43.5625H82V38.4375H71.75V33.3125H82V28.1875H71.75V23.0625H82Z" fill="black"/>
<path d="M76.875 79.4375H82V84.5625H76.875V79.4375Z" fill="black"/>
<path d="M138.375 69.1875H128.125V64.0625H138.375V58.9375H128.125V53.8125H138.375V48.6875H128.125V43.5625H138.375V38.4375H128.125V33.3125H138.375V28.1875H128.125V23.0625H138.375V17.9375H97.375V23.0625H123V28.1875H97.375V33.3125H123V38.4375H97.375V43.5625H123V48.6875H97.375V53.8125H123V58.9375H97.375V64.0625H123V69.1875H97.375V74.3125H138.375V69.1875Z" fill="black"/>
<path d="M97.375 79.4375H123V84.5625H97.375V79.4375Z" fill="black"/>
<path d="M82 136.692V107.625C81.9907 100.147 79.6492 92.8586 75.3017 86.7745C70.9542 80.6904 64.8171 76.114 57.7456 73.6828L63.8994 57.2748C64.0448 56.8871 64.0941 56.4699 64.043 56.059C63.992 55.6481 63.8421 55.2557 63.6062 54.9154C63.3704 54.575 63.0556 54.2969 62.6887 54.1049C62.3219 53.9128 61.914 53.8125 61.5 53.8125H30.75C30.3359 53.8125 29.9279 53.9128 29.5611 54.1049C29.1942 54.297 28.8794 54.5751 28.6435 54.9155C28.4076 55.2558 28.2578 55.6483 28.2068 56.0592C28.1557 56.4702 28.2051 56.8874 28.3505 57.2751L33.1552 70.0876L37.9541 68.2881L34.4477 58.9375H57.8023L52.765 72.3685C47.5824 71.3936 42.2486 71.573 37.1432 72.894C32.0378 74.215 27.2863 76.6451 23.227 80.0114C19.1676 83.3777 15.9002 87.5974 13.6572 92.3702C11.4143 97.1429 10.2509 102.351 10.25 107.625V136.692C10.2527 137.702 10.0551 138.702 9.66864 139.635C9.28218 140.568 8.71451 141.416 7.99849 142.128C6.62647 143.5 5.6921 145.248 5.31354 147.151C4.93497 149.054 5.12922 151.026 5.87172 152.819C6.61421 154.611 7.87161 156.144 9.48489 157.222C11.0982 158.3 12.9949 158.875 14.9352 158.875H77.3148C79.255 158.875 81.1518 158.3 82.765 157.222C84.3783 156.144 85.6357 154.611 86.3782 152.819C87.1207 151.026 87.315 149.054 86.9364 147.151C86.5578 145.248 85.6235 143.5 84.2514 142.128C83.5354 141.416 82.9678 140.568 82.5813 139.635C82.1948 138.702 81.9972 137.702 82 136.692V136.692ZM77.3148 153.75H14.9352C14.0085 153.75 13.1027 153.475 12.3322 152.96C11.5618 152.445 10.9613 151.714 10.6066 150.858C10.252 150.001 10.1593 149.059 10.34 148.15C10.5208 147.242 10.967 146.407 11.6222 145.751C12.8157 144.565 13.762 143.153 14.4061 141.598C15.0503 140.042 15.3796 138.375 15.375 136.692V107.625C15.375 99.4696 18.6147 91.6482 24.3814 85.8815C30.1482 80.1147 37.9696 76.875 46.125 76.875C54.2804 76.875 62.1018 80.1147 67.8685 85.8815C73.6352 91.6482 76.875 99.4696 76.875 107.625V136.692C76.8703 138.375 77.1996 140.042 77.8438 141.598C78.488 143.153 79.4342 144.565 80.6277 145.751C81.283 146.407 81.7292 147.242 81.9099 148.15C82.0907 149.059 81.9979 150.001 81.6433 150.858C81.2887 151.714 80.6882 152.445 79.9177 152.96C79.1472 153.475 78.2414 153.75 77.3148 153.75V153.75Z" fill="black"/>
<path d="M34.3883 84.8477C32.2767 85.9398 30.3269 87.3197 28.5945 88.9477L32.1032 92.6831C33.4903 91.3793 35.0515 90.2742 36.7423 89.3993L34.3883 84.8477Z" fill="black"/>
<path d="M20.5 107.625V120.437H25.625V107.625C25.6193 103.532 26.8471 99.5319 29.1485 96.1469L24.9072 93.2695C22.0288 97.503 20.493 102.506 20.5 107.625V107.625Z" fill="black"/>
<path d="M43.5625 102.5H48.6875C50.0462 102.502 51.3489 103.042 52.3096 104.003C53.2704 104.964 53.8109 106.266 53.8125 107.625H58.9375C58.9344 104.907 57.8536 102.302 55.932 100.381C54.0104 98.4589 51.405 97.3781 48.6875 97.375V92.25H43.5625V97.375C40.844 97.375 38.2369 98.4549 36.3147 100.377C34.3924 102.299 33.3125 104.907 33.3125 107.625C33.3125 110.343 34.3924 112.951 36.3147 114.873C38.2369 116.795 40.844 117.875 43.5625 117.875H48.6875C50.0467 117.875 51.3503 118.415 52.3114 119.376C53.2725 120.337 53.8125 121.641 53.8125 123C53.8125 124.359 53.2725 125.663 52.3114 126.624C51.3503 127.585 50.0467 128.125 48.6875 128.125H43.5625C42.2038 128.123 40.9011 127.583 39.9404 126.622C38.9796 125.661 38.4391 124.359 38.4375 123H33.3125C33.3156 125.718 34.3964 128.323 36.318 130.244C38.2396 132.166 40.845 133.247 43.5625 133.25V138.375H48.6875V133.25C51.406 133.25 54.0131 132.17 55.9353 130.248C57.8576 128.326 58.9375 125.718 58.9375 123C58.9375 120.282 57.8576 117.674 55.9353 115.752C54.0131 113.83 51.406 112.75 48.6875 112.75H43.5625C42.2033 112.75 40.8997 112.21 39.9386 111.249C38.9775 110.288 38.4375 108.984 38.4375 107.625C38.4375 106.266 38.9775 104.962 39.9386 104.001C40.8997 103.04 42.2033 102.5 43.5625 102.5V102.5Z" fill="black"/>
<path d="M151.187 125.563H97.3749C96.869 125.562 96.3743 125.712 95.9534 125.993L88.2659 131.118C87.9149 131.352 87.6272 131.669 87.4281 132.041C87.2291 132.413 87.125 132.828 87.125 133.25C87.125 133.672 87.2291 134.087 87.4281 134.459C87.6272 134.831 87.9149 135.148 88.2659 135.382L95.9534 140.507C96.3743 140.788 96.869 140.938 97.3749 140.938H143.5V143.5C143.499 144.179 143.229 144.831 142.749 145.311C142.268 145.792 141.617 146.062 140.937 146.062H115.312V151.188H140.937C142.976 151.185 144.93 150.375 146.371 148.933C147.812 147.492 148.623 145.538 148.625 143.5V140.938H151.187C153.226 140.938 155.182 140.128 156.623 138.686C158.065 137.244 158.875 135.289 158.875 133.25C158.875 131.211 158.065 129.256 156.623 127.814C155.182 126.372 153.226 125.563 151.187 125.563V125.563ZM99.9374 135.812V130.688H143.5V135.812H99.9374ZM151.187 135.812H148.625V130.688H151.187C151.867 130.688 152.519 130.957 152.999 131.438C153.48 131.919 153.75 132.57 153.75 133.25C153.75 133.93 153.48 134.581 152.999 135.062C152.519 135.543 151.867 135.812 151.187 135.812Z" fill="black"/>
</g>
</svg>
