<svg width="74" height="75" viewBox="0 0 74 75" fill="none" xmlns="http://www.w3.org/2000/svg">
<mask id="path-1-outside-1" maskUnits="userSpaceOnUse" x="6" y="-0.5" width="62" height="76" fill="black">
<rect fill="white" x="6" y="-0.5" width="62" height="76"/>
<path d="M65.8095 15.7886C66.467 15.7886 67 15.2593 67 14.6065V6.32385C67 3.11262 64.3178 0.5 61.0208 0.5H12.9365C9.60762 0.5 7 3.05808 7 6.32385V59.1404C7 62.4387 9.66302 65.1219 12.9365 65.1219H24.619V73.3178C24.619 73.7275 24.8327 74.108 25.1837 74.3234C25.5346 74.5389 25.973 74.5584 26.3419 74.3751L32.1587 71.4871L37.9756 74.3751C38.1437 74.4585 38.326 74.4999 38.5079 74.4999C38.7257 74.4999 38.9427 74.4407 39.1338 74.3234C39.4848 74.108 39.6984 73.7275 39.6984 73.3178V65.1198L61.0206 65.0825C64.3178 65.0825 67 62.4169 67 59.1404V50.8578C67 50.205 66.467 49.6757 65.8095 49.6757H57.4762V15.7886H65.8095ZM64.619 6.32385V13.4244H57.4762V6.40266C57.4762 4.45927 59.0671 2.87241 61.023 2.86422C63.0062 2.86548 64.619 4.41703 64.619 6.32385ZM37.9473 54.1494C37.7806 54.238 37.6381 54.3649 37.5306 54.5181C36.0368 55.7514 34.1594 56.4295 32.2143 56.4295C30.1487 56.4295 28.1656 55.6702 26.6308 54.2922C24.8833 52.7213 23.881 50.4841 23.881 48.1547C23.881 43.5919 27.6192 39.88 32.2143 39.88C36.8094 39.88 40.5476 43.5919 40.5476 48.1547C40.5476 50.4214 39.6025 52.5876 37.9473 54.1494ZM37.3175 71.4052L32.6911 69.1083C32.356 68.9418 31.9614 68.9418 31.6263 69.1083L27 71.4052V57.4459C28.5827 58.324 30.3727 58.7937 32.2143 58.7937C34.0102 58.7937 35.7616 58.3454 37.3175 57.5063V71.4052ZM39.6984 55.7598C41.7575 53.7614 42.9286 51.02 42.9286 48.1547C42.9286 42.2883 38.1222 37.5157 32.2143 37.5157C26.3064 37.5157 21.5 42.2883 21.5 48.1547C21.5 50.9612 22.6302 53.6622 24.619 55.6523V62.7577H12.9365C10.9759 62.7577 9.38095 61.135 9.38095 59.1404V6.32385C9.38095 4.38378 10.9427 2.86422 12.9365 2.86422H56.287C55.5394 3.85151 55.0952 5.07728 55.0952 6.40266V59.1404C55.0952 60.4857 55.547 61.7285 56.3057 62.7265L39.6984 62.7556V55.7598ZM64.619 52.0399V59.1404C64.619 61.0788 62.9732 62.7164 61.0219 62.7183C59.0665 62.7094 57.4762 61.1052 57.4762 59.1404V52.0399H64.619Z"/>
<path d="M32.2143 42.2443C28.9321 42.2443 26.262 44.8957 26.262 48.1548C26.262 51.4139 28.9321 54.0653 32.2143 54.0653C35.4966 54.0653 38.1667 51.4139 38.1667 48.1548C38.1667 44.8957 35.4966 42.2443 32.2143 42.2443ZM32.2143 51.7011C30.245 51.7011 28.6429 50.1103 28.6429 48.1548C28.6429 46.1993 30.245 44.6085 32.2143 44.6085C34.1837 44.6085 35.7858 46.1993 35.7858 48.1548C35.7858 50.1103 34.1837 51.7011 32.2143 51.7011Z"/>
<path d="M48.1112 24.4574H16.3652C15.7077 24.4574 15.1747 24.9867 15.1747 25.6395C15.1747 26.2923 15.7077 26.8216 16.3652 26.8216H48.1112C48.7687 26.8216 49.3017 26.2923 49.3017 25.6395C49.3017 24.9867 48.7687 24.4574 48.1112 24.4574Z"/>
<path d="M43.3492 29.1857H21.127C20.4695 29.1857 19.9365 29.7149 19.9365 30.3678C19.9365 31.0206 20.4695 31.5499 21.127 31.5499H43.3492C44.0067 31.5499 44.5397 31.0206 44.5397 30.3678C44.5397 29.7149 44.0067 29.1857 43.3492 29.1857Z"/>
<path d="M48.1111 19.729H43.3492C42.6917 19.729 42.1587 20.2583 42.1587 20.9111C42.1587 21.564 42.6917 22.0932 43.3492 22.0932H48.1111C48.7685 22.0932 49.3015 21.564 49.3015 20.9111C49.3015 20.2583 48.7685 19.729 48.1111 19.729Z"/>
<path d="M16.3652 22.0932H38.5874C39.2448 22.0932 39.7779 21.564 39.7779 20.9111C39.7779 20.2583 39.2448 19.729 38.5874 19.729H16.3652C15.7077 19.729 15.1747 20.2583 15.1747 20.9111C15.1747 21.564 15.7077 22.0932 16.3652 22.0932Z"/>
<path d="M20.3722 15.5662C20.5896 15.734 20.847 15.8154 21.1024 15.8154C21.4572 15.8154 21.8081 15.6585 22.0429 15.3591L24.8078 11.8301L27.5715 15.3588C27.797 15.6467 28.1437 15.8152 28.511 15.8152C28.8784 15.8152 29.2253 15.6469 29.4507 15.3589L32.2156 11.8299L34.9792 15.3586C35.2048 15.6466 35.5516 15.8151 35.9189 15.8151C36.2862 15.8151 36.6332 15.6466 36.8586 15.3586L39.6221 11.8301L42.3856 15.3586C42.7891 15.874 43.537 15.967 44.0561 15.566C44.5751 15.1652 44.6686 14.4225 44.2649 13.9073L40.5618 9.17886C40.3362 8.8909 39.9894 8.72241 39.6221 8.72241C39.2548 8.72241 38.9078 8.8909 38.6824 9.17886L35.9189 12.7074L33.1554 9.17886C32.9299 8.8909 32.5832 8.72241 32.2159 8.72241C31.8484 8.72241 31.5016 8.89074 31.2762 9.17871L28.5113 12.7077L25.7476 9.17918C25.5221 8.89122 25.1754 8.72273 24.8081 8.72273C24.4407 8.72273 24.0938 8.89106 23.8684 9.17902L20.1637 13.9075C19.7599 14.4227 19.8534 15.1654 20.3722 15.5662Z"/>
</mask>
<path d="M65.8095 15.7886C66.467 15.7886 67 15.2593 67 14.6065V6.32385C67 3.11262 64.3178 0.5 61.0208 0.5H12.9365C9.60762 0.5 7 3.05808 7 6.32385V59.1404C7 62.4387 9.66302 65.1219 12.9365 65.1219H24.619V73.3178C24.619 73.7275 24.8327 74.108 25.1837 74.3234C25.5346 74.5389 25.973 74.5584 26.3419 74.3751L32.1587 71.4871L37.9756 74.3751C38.1437 74.4585 38.326 74.4999 38.5079 74.4999C38.7257 74.4999 38.9427 74.4407 39.1338 74.3234C39.4848 74.108 39.6984 73.7275 39.6984 73.3178V65.1198L61.0206 65.0825C64.3178 65.0825 67 62.4169 67 59.1404V50.8578C67 50.205 66.467 49.6757 65.8095 49.6757H57.4762V15.7886H65.8095ZM64.619 6.32385V13.4244H57.4762V6.40266C57.4762 4.45927 59.0671 2.87241 61.023 2.86422C63.0062 2.86548 64.619 4.41703 64.619 6.32385ZM37.9473 54.1494C37.7806 54.238 37.6381 54.3649 37.5306 54.5181C36.0368 55.7514 34.1594 56.4295 32.2143 56.4295C30.1487 56.4295 28.1656 55.6702 26.6308 54.2922C24.8833 52.7213 23.881 50.4841 23.881 48.1547C23.881 43.5919 27.6192 39.88 32.2143 39.88C36.8094 39.88 40.5476 43.5919 40.5476 48.1547C40.5476 50.4214 39.6025 52.5876 37.9473 54.1494ZM37.3175 71.4052L32.6911 69.1083C32.356 68.9418 31.9614 68.9418 31.6263 69.1083L27 71.4052V57.4459C28.5827 58.324 30.3727 58.7937 32.2143 58.7937C34.0102 58.7937 35.7616 58.3454 37.3175 57.5063V71.4052ZM39.6984 55.7598C41.7575 53.7614 42.9286 51.02 42.9286 48.1547C42.9286 42.2883 38.1222 37.5157 32.2143 37.5157C26.3064 37.5157 21.5 42.2883 21.5 48.1547C21.5 50.9612 22.6302 53.6622 24.619 55.6523V62.7577H12.9365C10.9759 62.7577 9.38095 61.135 9.38095 59.1404V6.32385C9.38095 4.38378 10.9427 2.86422 12.9365 2.86422H56.287C55.5394 3.85151 55.0952 5.07728 55.0952 6.40266V59.1404C55.0952 60.4857 55.547 61.7285 56.3057 62.7265L39.6984 62.7556V55.7598ZM64.619 52.0399V59.1404C64.619 61.0788 62.9732 62.7164 61.0219 62.7183C59.0665 62.7094 57.4762 61.1052 57.4762 59.1404V52.0399H64.619Z" fill="#F2C94C"/>
<path d="M32.2143 42.2443C28.9321 42.2443 26.262 44.8957 26.262 48.1548C26.262 51.4139 28.9321 54.0653 32.2143 54.0653C35.4966 54.0653 38.1667 51.4139 38.1667 48.1548C38.1667 44.8957 35.4966 42.2443 32.2143 42.2443ZM32.2143 51.7011C30.245 51.7011 28.6429 50.1103 28.6429 48.1548C28.6429 46.1993 30.245 44.6085 32.2143 44.6085C34.1837 44.6085 35.7858 46.1993 35.7858 48.1548C35.7858 50.1103 34.1837 51.7011 32.2143 51.7011Z" fill="#F2C94C"/>
<path d="M48.1112 24.4574H16.3652C15.7077 24.4574 15.1747 24.9867 15.1747 25.6395C15.1747 26.2923 15.7077 26.8216 16.3652 26.8216H48.1112C48.7687 26.8216 49.3017 26.2923 49.3017 25.6395C49.3017 24.9867 48.7687 24.4574 48.1112 24.4574Z" fill="#F2C94C"/>
<path d="M43.3492 29.1857H21.127C20.4695 29.1857 19.9365 29.7149 19.9365 30.3678C19.9365 31.0206 20.4695 31.5499 21.127 31.5499H43.3492C44.0067 31.5499 44.5397 31.0206 44.5397 30.3678C44.5397 29.7149 44.0067 29.1857 43.3492 29.1857Z" fill="#F2C94C"/>
<path d="M48.1111 19.729H43.3492C42.6917 19.729 42.1587 20.2583 42.1587 20.9111C42.1587 21.564 42.6917 22.0932 43.3492 22.0932H48.1111C48.7685 22.0932 49.3015 21.564 49.3015 20.9111C49.3015 20.2583 48.7685 19.729 48.1111 19.729Z" fill="#F2C94C"/>
<path d="M16.3652 22.0932H38.5874C39.2448 22.0932 39.7779 21.564 39.7779 20.9111C39.7779 20.2583 39.2448 19.729 38.5874 19.729H16.3652C15.7077 19.729 15.1747 20.2583 15.1747 20.9111C15.1747 21.564 15.7077 22.0932 16.3652 22.0932Z" fill="#F2C94C"/>
<path d="M20.3722 15.5662C20.5896 15.734 20.847 15.8154 21.1024 15.8154C21.4572 15.8154 21.8081 15.6585 22.0429 15.3591L24.8078 11.8301L27.5715 15.3588C27.797 15.6467 28.1437 15.8152 28.511 15.8152C28.8784 15.8152 29.2253 15.6469 29.4507 15.3589L32.2156 11.8299L34.9792 15.3586C35.2048 15.6466 35.5516 15.8151 35.9189 15.8151C36.2862 15.8151 36.6332 15.6466 36.8586 15.3586L39.6221 11.8301L42.3856 15.3586C42.7891 15.874 43.537 15.967 44.0561 15.566C44.5751 15.1652 44.6686 14.4225 44.2649 13.9073L40.5618 9.17886C40.3362 8.8909 39.9894 8.72241 39.6221 8.72241C39.2548 8.72241 38.9078 8.8909 38.6824 9.17886L35.9189 12.7074L33.1554 9.17886C32.9299 8.8909 32.5832 8.72241 32.2159 8.72241C31.8484 8.72241 31.5016 8.89074 31.2762 9.17871L28.5113 12.7077L25.7476 9.17918C25.5221 8.89122 25.1754 8.72273 24.8081 8.72273C24.4407 8.72273 24.0938 8.89106 23.8684 9.17902L20.1637 13.9075C19.7599 14.4227 19.8534 15.1654 20.3722 15.5662Z" fill="#F2C94C"/>
<path d="M65.8095 15.7886C66.467 15.7886 67 15.2593 67 14.6065V6.32385C67 3.11262 64.3178 0.5 61.0208 0.5H12.9365C9.60762 0.5 7 3.05808 7 6.32385V59.1404C7 62.4387 9.66302 65.1219 12.9365 65.1219H24.619V73.3178C24.619 73.7275 24.8327 74.108 25.1837 74.3234C25.5346 74.5389 25.973 74.5584 26.3419 74.3751L32.1587 71.4871L37.9756 74.3751C38.1437 74.4585 38.326 74.4999 38.5079 74.4999C38.7257 74.4999 38.9427 74.4407 39.1338 74.3234C39.4848 74.108 39.6984 73.7275 39.6984 73.3178V65.1198L61.0206 65.0825C64.3178 65.0825 67 62.4169 67 59.1404V50.8578C67 50.205 66.467 49.6757 65.8095 49.6757H57.4762V15.7886H65.8095ZM64.619 6.32385V13.4244H57.4762V6.40266C57.4762 4.45927 59.0671 2.87241 61.023 2.86422C63.0062 2.86548 64.619 4.41703 64.619 6.32385ZM37.9473 54.1494C37.7806 54.238 37.6381 54.3649 37.5306 54.5181C36.0368 55.7514 34.1594 56.4295 32.2143 56.4295C30.1487 56.4295 28.1656 55.6702 26.6308 54.2922C24.8833 52.7213 23.881 50.4841 23.881 48.1547C23.881 43.5919 27.6192 39.88 32.2143 39.88C36.8094 39.88 40.5476 43.5919 40.5476 48.1547C40.5476 50.4214 39.6025 52.5876 37.9473 54.1494ZM37.3175 71.4052L32.6911 69.1083C32.356 68.9418 31.9614 68.9418 31.6263 69.1083L27 71.4052V57.4459C28.5827 58.324 30.3727 58.7937 32.2143 58.7937C34.0102 58.7937 35.7616 58.3454 37.3175 57.5063V71.4052ZM39.6984 55.7598C41.7575 53.7614 42.9286 51.02 42.9286 48.1547C42.9286 42.2883 38.1222 37.5157 32.2143 37.5157C26.3064 37.5157 21.5 42.2883 21.5 48.1547C21.5 50.9612 22.6302 53.6622 24.619 55.6523V62.7577H12.9365C10.9759 62.7577 9.38095 61.135 9.38095 59.1404V6.32385C9.38095 4.38378 10.9427 2.86422 12.9365 2.86422H56.287C55.5394 3.85151 55.0952 5.07728 55.0952 6.40266V59.1404C55.0952 60.4857 55.547 61.7285 56.3057 62.7265L39.6984 62.7556V55.7598ZM64.619 52.0399V59.1404C64.619 61.0788 62.9732 62.7164 61.0219 62.7183C59.0665 62.7094 57.4762 61.1052 57.4762 59.1404V52.0399H64.619Z" stroke="#F2C94C" mask="url(#path-1-outside-1)"/>
<path d="M32.2143 42.2443C28.9321 42.2443 26.262 44.8957 26.262 48.1548C26.262 51.4139 28.9321 54.0653 32.2143 54.0653C35.4966 54.0653 38.1667 51.4139 38.1667 48.1548C38.1667 44.8957 35.4966 42.2443 32.2143 42.2443ZM32.2143 51.7011C30.245 51.7011 28.6429 50.1103 28.6429 48.1548C28.6429 46.1993 30.245 44.6085 32.2143 44.6085C34.1837 44.6085 35.7858 46.1993 35.7858 48.1548C35.7858 50.1103 34.1837 51.7011 32.2143 51.7011Z" stroke="#F2C94C" mask="url(#path-1-outside-1)"/>
<path d="M48.1112 24.4574H16.3652C15.7077 24.4574 15.1747 24.9867 15.1747 25.6395C15.1747 26.2923 15.7077 26.8216 16.3652 26.8216H48.1112C48.7687 26.8216 49.3017 26.2923 49.3017 25.6395C49.3017 24.9867 48.7687 24.4574 48.1112 24.4574Z" stroke="#F2C94C" mask="url(#path-1-outside-1)"/>
<path d="M43.3492 29.1857H21.127C20.4695 29.1857 19.9365 29.7149 19.9365 30.3678C19.9365 31.0206 20.4695 31.5499 21.127 31.5499H43.3492C44.0067 31.5499 44.5397 31.0206 44.5397 30.3678C44.5397 29.7149 44.0067 29.1857 43.3492 29.1857Z" stroke="#F2C94C" mask="url(#path-1-outside-1)"/>
<path d="M48.1111 19.729H43.3492C42.6917 19.729 42.1587 20.2583 42.1587 20.9111C42.1587 21.564 42.6917 22.0932 43.3492 22.0932H48.1111C48.7685 22.0932 49.3015 21.564 49.3015 20.9111C49.3015 20.2583 48.7685 19.729 48.1111 19.729Z" stroke="#F2C94C" mask="url(#path-1-outside-1)"/>
<path d="M16.3652 22.0932H38.5874C39.2448 22.0932 39.7779 21.564 39.7779 20.9111C39.7779 20.2583 39.2448 19.729 38.5874 19.729H16.3652C15.7077 19.729 15.1747 20.2583 15.1747 20.9111C15.1747 21.564 15.7077 22.0932 16.3652 22.0932Z" stroke="#F2C94C" mask="url(#path-1-outside-1)"/>
<path d="M20.3722 15.5662C20.5896 15.734 20.847 15.8154 21.1024 15.8154C21.4572 15.8154 21.8081 15.6585 22.0429 15.3591L24.8078 11.8301L27.5715 15.3588C27.797 15.6467 28.1437 15.8152 28.511 15.8152C28.8784 15.8152 29.2253 15.6469 29.4507 15.3589L32.2156 11.8299L34.9792 15.3586C35.2048 15.6466 35.5516 15.8151 35.9189 15.8151C36.2862 15.8151 36.6332 15.6466 36.8586 15.3586L39.6221 11.8301L42.3856 15.3586C42.7891 15.874 43.537 15.967 44.0561 15.566C44.5751 15.1652 44.6686 14.4225 44.2649 13.9073L40.5618 9.17886C40.3362 8.8909 39.9894 8.72241 39.6221 8.72241C39.2548 8.72241 38.9078 8.8909 38.6824 9.17886L35.9189 12.7074L33.1554 9.17886C32.9299 8.8909 32.5832 8.72241 32.2159 8.72241C31.8484 8.72241 31.5016 8.89074 31.2762 9.17871L28.5113 12.7077L25.7476 9.17918C25.5221 8.89122 25.1754 8.72273 24.8081 8.72273C24.4407 8.72273 24.0938 8.89106 23.8684 9.17902L20.1637 13.9075C19.7599 14.4227 19.8534 15.1654 20.3722 15.5662Z" stroke="#F2C94C" mask="url(#path-1-outside-1)"/>
</svg>
