<svg width="74" height="74" viewBox="0 0 74 74" fill="none" xmlns="http://www.w3.org/2000/svg">
<g clip-path="url(#clip0)">
<path d="M63.7179 45.5196L54.2823 52.4882C53.3621 53.1455 52.3534 53.6452 51.2979 53.9831C51.8585 52.3603 51.7633 50.6209 51.0208 49.0645C50.2532 47.4555 48.8991 46.2588 47.203 45.6933L28.3687 39.4619C22.7002 37.572 15.0749 38.3893 9.98422 42.9264H2.16797C0.970672 42.9264 0 43.8971 0 45.0944V66.7741C0 67.9714 0.970672 68.9421 2.16797 68.9421H10.8398C12.0371 68.9421 13.0078 67.9714 13.0078 66.7741V65.154L30.0119 69.0181C33.1128 69.728 36.2909 70.1006 39.2318 70.1006C39.3663 70.1006 39.5002 70.0999 39.6336 70.0983C47.8621 70.0019 55.8093 67.3814 62.616 62.5198L71.2782 56.1042C74.3106 53.9383 74.9051 49.6594 72.5767 46.749C70.4194 44.0523 66.528 43.5124 63.7179 45.5196ZM8.67188 64.6061H4.33594V47.2624H8.67188V64.6061ZM68.758 52.5759L60.0958 58.9915C54.0139 63.3354 46.9208 65.6768 39.5829 65.7627C36.8692 65.7943 33.8933 65.4586 30.9761 64.7908L13.0078 60.7077V46.0405C17.6791 41.986 24.1279 42.6186 27.0021 43.5768L45.8365 49.8083C46.4002 49.9962 46.8515 50.3951 47.1074 50.9314C47.3633 51.4678 47.3892 52.0696 47.1806 52.6259C46.7693 53.7228 45.5762 54.2918 44.4653 53.9214C44.4632 53.9206 44.4611 53.9204 44.459 53.9196L31.1755 49.5396C30.0384 49.1647 28.8127 49.7826 28.4377 50.9196C28.0628 52.0568 28.6806 53.2825 29.8177 53.6575L43.1828 58.0644C47.7734 59.5947 52.8649 58.8289 56.8025 56.0163L66.2381 49.0479C67.1748 48.3789 68.4717 48.5588 69.1909 49.4577C69.9656 50.426 69.7749 51.8495 68.758 52.5759Z" fill="#F2C94C"/>
<path d="M58.6679 22.3874C57.5106 21.7698 56.1753 21.5221 54.8839 21.2825C53.9167 21.103 52.9164 20.9175 52.3507 20.6156C52.0622 20.4615 52.0622 20.4216 52.0622 20.1621C52.0622 20.0084 52.3123 19.728 52.7904 19.489C53.9741 18.8973 55.6434 18.9457 56.5119 19.5971C57.47 20.3155 58.8286 20.1213 59.5471 19.1635C60.2655 18.2057 60.0714 16.8468 59.1135 16.1283C58.4005 15.5936 57.559 15.2114 56.6564 14.9841V14.4532C56.6564 13.2559 55.6858 12.2852 54.4885 12.2852C53.2912 12.2852 52.3205 13.2559 52.3205 14.4532V15.0491C51.8155 15.1892 51.3221 15.3755 50.8513 15.6109C48.8653 16.6038 47.7263 18.2628 47.7263 20.1622C47.7263 22.0595 48.6195 23.539 50.3092 24.4409C51.4663 25.0585 52.8016 25.3062 54.093 25.5458C55.0604 25.7254 56.0605 25.9108 56.6262 26.2127C56.9147 26.3666 56.9147 26.4067 56.9147 26.6661C56.9147 26.8147 56.6582 27.1007 56.1828 27.3385C55.0001 27.9299 53.3322 27.8816 52.465 27.2312C51.5072 26.5128 50.1483 26.7072 49.4299 27.6648C48.7114 28.6228 48.9057 29.9817 49.8635 30.7C50.5764 31.2347 51.418 31.6166 52.3205 31.8438V32.3751C52.3205 33.5724 53.2912 34.5431 54.4885 34.5431C55.6858 34.5431 56.6564 33.5724 56.6564 32.3751V31.776C57.1601 31.6361 57.6524 31.4514 58.122 31.2165C60.1103 30.2223 61.2506 28.5638 61.2506 26.666C61.2506 24.7687 60.3574 23.2893 58.6679 22.3874Z" fill="#F2C94C"/>
<path d="M54.4883 42.9249C65.247 42.9249 74 34.1719 74 23.4131C74 12.6544 65.247 3.90143 54.4883 3.90143C43.7295 3.90143 34.9766 12.6544 34.9766 23.4131C34.9766 34.1719 43.7295 42.9249 54.4883 42.9249ZM54.4883 8.23737C62.8562 8.23737 69.6641 15.0452 69.6641 23.4131C69.6641 31.7811 62.8562 38.5889 54.4883 38.5889C46.1204 38.5889 39.3125 31.7811 39.3125 23.4131C39.3125 15.0452 46.1204 8.23737 54.4883 8.23737Z" fill="#F2C94C"/>
</g>
<defs>
<clipPath id="clip0">
<rect width="74" height="74" fill="white"/>
</clipPath>
</defs>
</svg>
