<svg width="164" height="164" viewBox="0 0 164 164" fill="none" xmlns="http://www.w3.org/2000/svg">
<g opacity="0.05">
<path d="M153.75 41.0001H140.93C142.601 38.7855 143.503 36.0865 143.5 33.3126V17.9376C143.496 14.5407 142.145 11.284 139.743 8.88202C137.341 6.48004 134.084 5.12893 130.688 5.12511H109.441C106.107 5.11319 102.836 6.03576 99.9999 7.78818C97.1635 9.5406 94.8748 12.0528 93.3935 15.0397L90.831 20.1647L95.4153 22.4563L97.9778 17.3313C99.0361 15.1978 100.671 13.4035 102.697 12.1519C104.723 10.9003 107.06 10.2415 109.441 10.2501H110.188C112.226 10.2525 114.18 11.0632 115.621 12.5044C117.062 13.9455 117.873 15.8995 117.875 17.9376V20.5914C114.864 20.8868 111.979 21.9436 109.489 23.6621C107 25.3806 104.988 27.7044 103.645 30.4147L98.3536 41.0001H92.25V28.1876C92.25 27.508 91.98 26.8562 91.4995 26.3757C91.0189 25.8951 90.3671 25.6251 89.6875 25.6251H75.8964L70.6049 15.0397C69.1237 12.053 66.8353 9.54101 63.9992 7.7886C61.1631 6.0362 57.8927 5.11349 54.5588 5.12511H33.3125C29.9156 5.12893 26.6589 6.48004 24.2569 8.88202C21.8549 11.284 20.5038 14.5407 20.5 17.9376V33.3126C20.4971 36.0865 21.3993 38.7855 23.0695 41.0001H10.25C9.57038 41.0001 8.9186 41.2701 8.43804 41.7507C7.95748 42.2312 7.6875 42.883 7.6875 43.5626V64.0626C7.6875 64.7422 7.95748 65.394 8.43804 65.8746C8.9186 66.3551 9.57038 66.6251 10.25 66.6251H38.4375V67.3891L28.3883 91.2571C28.1922 91.723 28.1383 92.2364 28.2332 92.7328C28.3281 93.2292 28.5677 93.6864 28.9219 94.047C29.276 94.4076 29.7289 94.6554 30.2235 94.7592C30.7181 94.8631 31.2324 94.8184 31.7016 94.6307L38.4375 91.9349V153.75H23.0625V71.7501H17.9375V156.313C17.9375 156.992 18.2075 157.644 18.688 158.125C19.1686 158.605 19.8204 158.875 20.5 158.875H143.5C144.18 158.875 144.831 158.605 145.312 158.125C145.793 157.644 146.062 156.992 146.062 156.313V66.6251H153.75C154.43 66.6251 155.081 66.3551 155.562 65.8746C156.043 65.394 156.312 64.7422 156.312 64.0626V43.5626C156.312 42.883 156.043 42.2312 155.562 41.7507C155.081 41.2701 154.43 41.0001 153.75 41.0001ZM130.688 10.2501C132.726 10.2525 134.68 11.0632 136.121 12.5044C137.562 13.9455 138.373 15.8995 138.375 17.9376V33.3126C138.373 35.3507 137.562 37.3047 136.121 38.7459C134.68 40.187 132.726 40.9977 130.688 41.0001H120.43C122.101 38.7855 123.003 36.0865 123 33.3126V17.9376C123.003 15.1638 122.101 12.4647 120.43 10.2501H130.688ZM108.229 32.7063C109.149 30.8498 110.509 29.2462 112.19 28.0345C113.871 26.8228 115.823 26.0398 117.875 25.7532V33.3126C117.873 35.3507 117.062 37.3047 115.621 38.7459C114.18 40.187 112.226 40.9977 110.188 41.0001H104.083L108.229 32.7063ZM111.048 46.1251L128.509 87.5937L121.389 84.7458C120.824 84.5197 120.197 84.5023 119.62 84.6967C119.043 84.8911 118.554 85.2846 118.24 85.8067L113.185 94.2325L93.5047 46.1251H111.048ZM76.0319 46.1251H79.4375V61.5001H69.7429L76.0319 46.1251ZM87.9661 46.1251L94.2561 61.5001H84.5625V46.1251H87.9661ZM84.5625 66.6251H96.3535L99.9375 75.386V153.75H84.5625V66.6251ZM87.125 41.0001H76.875V30.7501H87.125V41.0001ZM54.5588 10.2501C56.9402 10.2416 59.2762 10.9006 61.3021 12.1522C63.328 13.4037 64.9628 15.1979 66.0209 17.3313L71.75 28.7924V41.0001H65.6464L60.3549 30.4144C59.0114 27.7042 57.0002 25.3804 54.5108 23.6619C52.0213 21.9435 49.1355 20.8868 46.125 20.5914V17.9376C46.1274 15.8995 46.9381 13.9455 48.3792 12.5044C49.8204 11.0632 51.7744 10.2525 53.8125 10.2501H54.5588ZM46.125 33.3126V25.7532C48.1774 26.0399 50.1288 26.8231 51.8098 28.035C53.4907 29.2469 54.8505 30.8509 55.7709 32.7075L59.9167 41.0001H53.8125C51.7744 40.9977 49.8204 40.187 48.3792 38.7459C46.9381 37.3047 46.1274 35.3507 46.125 33.3126V33.3126ZM25.625 33.3126V17.9376C25.6274 15.8995 26.4381 13.9455 27.8792 12.5044C29.3204 11.0632 31.2744 10.2525 33.3125 10.2501H43.5695C41.8993 12.4647 40.9971 15.1638 41 17.9376V33.3126C40.9971 36.0865 41.8993 38.7855 43.5695 41.0001H33.3125C31.2744 40.9977 29.3204 40.187 27.8792 38.7459C26.4381 37.3047 25.6274 35.3507 25.625 33.3126V33.3126ZM12.8125 46.1251H47.3906L40.917 61.5001H12.8125V46.1251ZM52.9515 46.1251H70.4953L50.8153 94.2325L45.7598 85.8067C45.4466 85.2846 44.9576 84.8911 44.3806 84.6967C43.8036 84.5023 43.1762 84.5197 42.6109 84.7458L35.4906 87.5937L52.9515 46.1251ZM43.5625 153.75V92.1057L49.0527 101.256C49.2803 101.635 49.6024 101.949 49.9874 102.168C50.3725 102.386 50.8075 102.5 51.25 102.5C51.3141 102.5 51.3792 102.498 51.4454 102.493C51.9198 102.457 52.3748 102.29 52.7595 102.01C53.1442 101.73 53.4434 101.348 53.6235 100.908L58.9375 87.9137V153.75H43.5625ZM79.4375 153.75H64.0625V75.386L67.6465 66.6251H79.4375V153.75ZM105.062 153.75V87.9137L110.38 100.908C110.56 101.348 110.859 101.73 111.244 102.01C111.628 102.29 112.083 102.457 112.558 102.493C112.623 102.498 112.688 102.5 112.753 102.5C113.196 102.5 113.63 102.385 114.015 102.167C114.4 101.949 114.722 101.635 114.95 101.256L120.438 92.1057V153.75H105.062ZM140.938 153.75H125.562V91.9349L132.298 94.6294C132.767 94.8169 133.282 94.8615 133.776 94.7577C134.27 94.6538 134.723 94.4062 135.077 94.0458C135.431 93.6854 135.671 93.2284 135.766 92.7323C135.861 92.2361 135.807 91.7229 135.612 91.2571L125.562 67.3891V66.6251H140.938V153.75ZM151.188 61.5001H123.083L116.609 46.1251H151.188V61.5001Z" fill="black"/>
</g>
</svg>
