<svg width="128" height="20" viewBox="0 0 128 20" fill="none" xmlns="http://www.w3.org/2000/svg">
<path d="M12.3374 11.4383H4.79562V16.1691H13.7037V19.85H0V0H13.731V3.69461H4.79562V7.88003H12.3374V11.4383Z" fill="#2AB5F6"/>
<path d="M32.2714 19.85H27.5031L20.4531 7.4983V19.85H15.6575V0H20.4531L27.4894 12.3517V0H32.2714V19.85Z" fill="#2AB5F6"/>
<path d="M35.3045 19.85V0H42.4501C45.0096 0 46.9542 0.468075 48.2841 1.40423C49.623 2.34038 50.2925 3.69916 50.2925 5.48057C50.2925 6.50761 50.0557 7.38469 49.582 8.11179C49.1084 8.8389 48.4116 9.37514 47.4916 9.72052C48.53 9.99318 49.327 10.5022 49.8826 11.2474C50.4382 11.9927 50.716 12.9016 50.716 13.9741C50.716 15.9191 50.0967 17.3824 48.8579 18.364C47.6283 19.3365 45.802 19.8319 43.3792 19.85H35.3045ZM40.1001 11.411V16.1691H43.2425C44.1078 16.1691 44.7728 15.9736 45.2373 15.5828C45.7018 15.1829 45.9341 14.6239 45.9341 13.9059C45.9341 12.2518 45.1098 11.4201 43.4611 11.411H40.1001ZM40.1001 8.27539H42.6004C43.6479 8.2663 44.3948 8.07544 44.8411 7.70279C45.2874 7.33015 45.5105 6.78028 45.5105 6.05317C45.5105 5.217 45.2692 4.61713 44.7864 4.25358C44.3037 3.88094 43.5249 3.69461 42.4501 3.69461H40.1001V8.27539Z" fill="#2AB5F6"/>
<path d="M65.7041 11.4383H58.1622V16.1691H67.0703V19.85H53.3666V0H67.0976V3.69461H58.1622V7.88003H65.7041V11.4383Z" fill="#2AB5F6"/>
<path d="M75.7871 12.4608L73.8197 14.6149V19.85H69.0241V0H73.8197V8.75256L75.4866 6.2304L79.7767 0H85.7063L78.9842 8.77982L85.7063 19.85H80.0226L75.7871 12.4608Z" fill="#2AB5F6"/>
<path d="M89.5592 15.392C90.2879 15.392 90.8936 15.6101 91.3763 16.0464C91.8591 16.4735 92.1004 17.0234 92.1004 17.696C92.1004 18.3686 91.8591 18.923 91.3763 19.3592C90.8936 19.7864 90.2879 20 89.5592 20C88.8214 20 88.2111 19.7819 87.7284 19.3456C87.2547 18.9093 87.0179 18.3595 87.0179 17.696C87.0179 17.0325 87.2547 16.4826 87.7284 16.0464C88.2111 15.6101 88.8214 15.392 89.5592 15.392Z" fill="#2AB5F6"/>
<path d="M101.973 12.4608L100.005 14.6149V19.85H95.2095V0H100.005V8.75256L101.672 6.2304L105.962 0H111.892L105.17 8.77982L111.892 19.85H106.208L101.973 12.4608Z" fill="#F2C94C"/>
<path d="M118.491 16.1691H128V19.85H112.506V17.3279L121.988 3.69461H112.452V0H127.904V2.45399L118.491 16.1691Z" fill="#F2C94C"/>
</svg>
