<svg width="74" height="74" viewBox="0 0 74 74" fill="none" xmlns="http://www.w3.org/2000/svg">
<g clip-path="url(#clip0)">
<path d="M68.0747 47.6963C68.0747 44.2064 65.588 41.2865 62.2933 40.615V32.8093C62.2933 32.0982 61.9447 31.4325 61.3602 31.0273C60.7757 30.6222 60.0296 30.5294 59.364 30.7793L55.2262 32.331C52.5089 29.5061 49.206 27.3784 45.5866 26.0723C49.1433 23.4368 51.4532 19.2101 51.4532 14.4534C51.4532 6.48367 44.9696 0 36.9998 0C29.03 0 22.5464 6.48367 22.5464 14.4534C22.5464 19.2101 24.8563 23.4368 28.413 26.0723C24.7934 27.3786 21.4907 29.5063 18.7734 32.331L14.6356 30.7793C13.9698 30.5294 13.2238 30.6222 12.6394 31.0273C12.0549 31.4325 11.7063 32.0982 11.7063 32.8093V40.615C8.41164 41.2865 5.92492 44.2063 5.92492 47.6963C5.92492 51.1864 8.41164 54.1061 11.7063 54.7776V63.1615C11.7063 64.0653 12.2669 64.8742 13.113 65.1915L36.2385 73.8636C36.7262 74.0454 37.2733 74.0454 37.7609 73.8636L60.8864 65.1915C61.7325 64.8742 62.2932 64.0653 62.2932 63.1615V54.7776C65.588 54.1061 68.0747 51.1863 68.0747 47.6963ZM26.8824 14.4534C26.8824 8.8747 31.4211 4.33603 36.9998 4.33603C42.5785 4.33603 47.1172 8.8747 47.1172 14.4534C47.1172 20.0322 42.5785 24.5708 36.9998 24.5708C31.4211 24.5708 26.8824 20.0322 26.8824 14.4534ZM36.9998 28.9069C42.0792 28.9069 46.9306 30.7426 50.716 34.0224L36.9998 39.1659L23.2836 34.0224C27.0691 30.7426 31.9206 28.9069 36.9998 28.9069ZM10.261 47.6963C10.261 46.1024 11.5577 44.8056 13.1516 44.8056H14.597V50.587H13.1516C11.5577 50.587 10.261 49.2903 10.261 47.6963ZM16.0423 54.8504C17.6896 54.5146 18.933 53.0547 18.933 51.3097V44.083C18.933 42.338 17.6896 40.8781 16.0423 40.5423V35.9377L34.8318 42.9838V68.7053L16.0423 61.6592V54.8504ZM39.1678 68.7051V42.9838L57.9573 35.9377V40.5423C56.31 40.8781 55.0666 42.338 55.0666 44.083V51.3097C55.0666 53.0547 56.31 54.5146 57.9573 54.8504V61.6591L39.1678 68.7051ZM60.848 50.587H59.4026V44.8056H60.848C62.4419 44.8056 63.7387 46.1024 63.7387 47.6963C63.7387 49.2903 62.442 50.587 60.848 50.587Z" fill="#F2C94C"/>
</g>
<defs>
<clipPath id="clip0">
<rect width="74" height="74" fill="white"/>
</clipPath>
</defs>
</svg>
