<svg width="50" height="50" viewBox="0 0 50 50" fill="none" xmlns="http://www.w3.org/2000/svg">
<path d="M17.1914 43.8325L15.5359 33.1274H10.2491L12.0281 44.631C12.2487 46.0564 13.5827 47.0339 15.009 46.8134C16.4349 46.5929 17.4119 45.2582 17.1914 43.8325Z" fill="#3C474C"/>
<path d="M24.1859 33.1274L24.19 33.1299L22.5349 43.8325C22.3144 45.2583 23.2914 46.5929 24.7173 46.8134C26.1437 47.0339 27.4778 46.0562 27.6982 44.631L29.4772 33.1274H24.1859Z" fill="#3C474C"/>
<path d="M45.8492 25.741H44.5262V25.6214C44.5262 24.4329 43.6636 23.4551 42.5578 23.2472L48.4632 10.5092C48.7151 9.96579 48.4867 9.32067 47.9489 9.0569L38.0958 4.22214C37.5497 3.95417 36.8895 4.17956 36.6216 4.72585C36.496 4.98171 36.48 5.26218 36.5533 5.51618C36.1604 5.68816 35.824 5.99441 35.6223 6.41062C35.469 6.72663 35.4152 7.06433 35.4446 7.3904C33.9294 7.30017 32.4365 8.04245 31.615 9.39235C31.5653 9.47409 31.5523 9.57302 31.5794 9.66472C31.6064 9.75652 31.6711 9.83239 31.7572 9.87419L38.6579 13.2184C38.7439 13.2601 38.8435 13.2635 38.9322 13.2279C39.021 13.1923 39.0909 13.121 39.1241 13.0314C39.6747 11.5503 39.3323 9.91862 38.3226 8.78513C38.5968 8.60612 38.8284 8.35466 38.9816 8.03864C39.1125 7.76862 39.1704 7.48278 39.1668 7.20183L46.011 10.5601L40.1496 23.2041H38.6204C37.4062 23.2041 36.203 24.1335 36.203 25.7411C35.9474 25.7411 35.7908 25.7411 35.6983 25.7411C35.6098 25.7411 35.5801 25.7411 35.5804 25.7411C35.3017 25.7411 34.4364 25.7411 32.0557 25.7411C33.4054 25.4529 34.2035 24.0713 33.7994 22.7668C33.2103 20.8649 31.3359 14.8129 30.7704 12.9872C30.081 10.7615 28.0524 9.26618 25.7226 9.26618H25.099C23.8478 10.6765 22.0437 11.5176 20.1054 11.5176C18.1216 11.5176 16.3383 10.6471 15.1143 9.26901C12.8458 9.32976 10.8865 10.8078 10.2115 12.9871C9.64591 14.8133 7.7713 20.866 7.18253 22.7667C6.77755 24.0743 7.5797 25.4536 8.92628 25.741C7.16905 25.741 5.76563 25.741 3.90558 25.741C2.42745 25.741 1.22931 26.9392 1.22931 28.4173C1.22931 29.8211 2.31027 30.9716 3.68507 31.0838C3.68507 31.8238 3.68507 47.3724 3.68507 48.0602C3.68507 49.1315 4.55343 50 5.62481 50C6.6962 50 7.56456 49.1316 7.56456 48.0602C7.56456 47.4935 7.56456 31.913 7.56456 31.0935H41.8425C41.8425 32.5453 41.8425 47.2408 41.8425 48.0602C41.8425 49.1315 42.7108 50 43.7822 50C44.8536 50 45.722 49.1316 45.722 48.0602C45.722 47.4935 45.722 31.913 45.722 31.0935H45.8493C47.33 31.0935 48.7704 29.8924 48.7704 28.4173C48.7703 26.9427 47.3305 25.741 45.8492 25.741ZM22.8778 21.1219C22.5057 21.1219 22.155 21.2113 21.8428 21.3662C22.1896 21.9849 22.3883 22.6979 22.3883 23.4578C22.3883 24.2703 22.1605 25.0566 21.7284 25.7411H18.594C19.6486 25.5159 20.4399 24.5796 20.4399 23.4578C20.4399 22.1677 19.3942 21.1221 18.1043 21.1221H12.5824C13.3213 18.7364 13.1565 19.2685 13.8941 16.8867V19.1737H16.3569L15.4463 17.0995C15.1745 16.4805 15.456 15.7584 16.075 15.4867C16.6942 15.215 17.416 15.4964 17.6878 16.1154L19.0801 19.2867C19.5916 19.4059 20.0683 19.6157 20.4911 19.9C21.1732 19.4415 21.9942 19.1737 22.8778 19.1737H27.044V16.7449C27.5544 18.3926 27.8725 19.4198 28.3997 21.122H22.8778V21.1219Z" fill="#3C474C"/>
<path d="M20.1054 9.68203C22.779 9.68203 24.9464 7.51463 24.9464 4.84102C24.9464 2.1674 22.779 0 20.1054 0C17.4317 0 15.2644 2.1674 15.2644 4.84102C15.2644 7.51463 17.4317 9.68203 20.1054 9.68203Z" fill="#3C474C"/>
</svg>
