<svg width="76" height="75" viewBox="0 0 76 75" fill="none" xmlns="http://www.w3.org/2000/svg">
<path d="M47.7408 41.6036C43.361 41.6036 39.7208 44.816 39.0454 49.0077H36.9545C36.2792 44.816 32.639 41.6036 28.2591 41.6036C23.401 41.6036 19.4492 45.5555 19.4492 50.4137C19.4492 55.2717 23.4011 59.2236 28.2591 59.2236C32.6215 59.2236 36.2508 56.0368 36.9468 51.8696H39.053C39.7491 56.0368 43.3783 59.2236 47.7407 59.2236C52.5988 59.2236 56.5507 55.2717 56.5507 50.4137C56.5509 45.5555 52.599 41.6036 47.7408 41.6036ZM28.2593 56.3619C24.9797 56.3619 22.3111 53.6933 22.3111 50.4137C22.3111 47.1339 24.9797 44.4653 28.2593 44.4653C31.5389 44.4653 34.2075 47.1339 34.2075 50.4137C34.2075 53.6933 31.5389 56.3619 28.2593 56.3619ZM47.7408 56.3619C44.4612 56.3619 41.7926 53.6933 41.7926 50.4137C41.7926 47.1339 44.4612 44.4653 47.7408 44.4653C51.0206 44.4653 53.6892 47.1339 53.6892 50.4137C53.6892 53.6933 51.0206 56.3619 47.7408 56.3619Z" fill="#F2C94C" stroke="#F2C94C" stroke-width="0.5"/>
<path d="M55.8458 38.3034L55.8459 38.3034C56.2826 38.0462 56.5508 37.5773 56.5508 37.0704V20.1022C56.5508 19.312 55.9104 18.6713 55.12 18.6713C54.3296 18.6713 53.6891 19.312 53.6891 20.1022V34.8299C51.7974 34.1073 49.7769 33.7314 47.7408 33.7314C44.2437 33.7314 40.8274 34.8417 38 36.8786C35.1726 34.8418 31.7563 33.7314 28.2592 33.7314C26.2229 33.7314 24.2026 34.1073 22.311 34.8299V16.8096H67.475V33.0249C66.0917 33.5905 65.1133 34.9503 65.1133 36.5365C65.1133 37.2722 65.3246 37.9595 65.6887 38.5414C64.3849 39.5208 63.5388 41.0802 63.5388 42.8343V66.4709C63.5388 67.2611 64.1793 67.9017 64.9697 67.9017C65.7601 67.9017 66.4005 67.2611 66.4005 66.4709V42.8343C66.4005 41.9861 66.8258 41.2358 67.475 40.7826V66.4709C67.475 67.2611 68.1155 67.9017 68.9059 67.9017C69.6963 67.9017 70.3367 67.2611 70.3367 66.4709V40.7827C70.986 41.2359 71.4112 41.9862 71.4112 42.8343V66.4709C71.4112 67.2611 72.0516 67.9017 72.842 67.9017C73.6324 67.9017 74.2729 67.2611 74.2729 66.4709V42.8343C74.2729 41.0803 73.4268 39.5207 72.123 38.5414C72.4871 37.9595 72.6984 37.2722 72.6984 36.5365C72.6984 34.9505 71.72 33.5905 70.3367 33.0249V16.8096H73.8191C74.6095 16.8096 75.25 16.1689 75.25 15.3787V10.6553C75.25 9.86515 74.6095 9.22449 73.8191 9.22449H70.3367V9.08088C70.3367 8.29068 69.6963 7.65002 68.9059 7.65002C68.1155 7.65002 67.475 8.29068 67.475 9.08088V9.22449H2.18085C1.39046 9.22449 0.75 9.86515 0.75 10.6553V15.3787C0.75 16.1689 1.39046 16.8096 2.18085 16.8096H19.4493V37.0704C19.4493 37.5772 19.7175 38.0464 20.1543 38.3034C20.5911 38.5605 21.1314 38.5674 21.5747 38.3213C23.6108 37.1909 25.9224 36.5931 28.2592 36.5931C31.4748 36.5931 34.6094 37.7275 37.0848 39.7873C37.35 40.008 37.6753 40.1183 38 40.1183C38.3247 40.1183 38.65 40.008 38.9152 39.7873C41.3908 37.7276 44.5252 36.5931 47.7408 36.5931C50.0776 36.5931 52.3893 37.1909 54.4254 38.3213C54.8684 38.5675 55.4089 38.5605 55.8458 38.3034ZM67.975 36.5365C67.975 36.0233 68.3927 35.6056 68.9059 35.6056C69.419 35.6056 69.8367 36.0233 69.8367 36.5365C69.8367 37.0496 69.419 37.4673 68.9059 37.4673C68.3927 37.4673 67.975 37.0496 67.975 36.5365ZM3.6117 13.9479V12.0862H67.475V13.9479H3.6117ZM72.3883 13.9479H70.3367V12.0862H72.3883V13.9479Z" fill="#F2C94C" stroke="#F2C94C" stroke-width="0.5"/>
<path d="M46.3688 30.4837L46.3689 30.484C46.3772 30.4992 46.3839 30.5133 46.3884 30.5231C46.3905 30.5275 46.392 30.5308 46.3932 30.5335C46.3953 30.5381 46.3967 30.5409 46.3984 30.5446C46.3985 30.5446 46.3985 30.5447 46.3985 30.5447L46.3688 30.4837ZM46.3688 30.4837C46.3492 30.4477 46.3284 30.4141 46.3079 30.3829L46.3069 30.3812C46.3053 30.3785 46.3029 30.3744 46.2998 30.3697L46.2998 30.3697M46.3688 30.4837L46.2998 30.3697M46.2998 30.3697L46.2974 30.3661M46.2998 30.3697L46.2974 30.3661M46.2974 30.3661C46.0407 29.986 45.6051 29.735 45.111 29.735C44.3211 29.735 43.6802 30.3759 43.6802 31.1658C43.6802 31.2151 43.6826 31.2639 43.6876 31.3123L46.2974 30.3661Z" fill="#F2C94C" stroke="#F2C94C" stroke-width="0.5"/>
<path d="M49.5177 25.7602L49.5179 25.7605C49.5261 25.7757 49.5328 25.7898 49.5373 25.7995C49.5394 25.804 49.5409 25.8073 49.5422 25.81C49.5443 25.8146 49.5456 25.8174 49.5474 25.8211C49.5474 25.8211 49.5474 25.8212 49.5474 25.8212L49.5177 25.7602ZM49.5177 25.7602C49.4981 25.7241 49.4773 25.6906 49.4568 25.6594L49.4558 25.6577C49.4542 25.655 49.4518 25.6509 49.4487 25.6462L49.4488 25.6462M49.5177 25.7602L49.4488 25.6462M49.4488 25.6462L49.4463 25.6425M49.4488 25.6462L49.4463 25.6425M49.4463 25.6425C49.1896 25.2625 48.7541 25.0115 48.26 25.0115C47.4701 25.0115 46.8291 25.6524 46.8291 26.4423C46.8291 26.4916 46.8316 26.5404 46.8365 26.5888L49.4463 25.6425Z" fill="#F2C94C" stroke="#F2C94C" stroke-width="0.5"/>
</svg>
