<svg width="150" height="37" viewBox="0 0 150 37" fill="none" xmlns="http://www.w3.org/2000/svg">
<path fill-rule="evenodd" clip-rule="evenodd" d="M22.4622 7.97466H8.16864V13.2002H12.2687C14.8812 13.2002 17.1918 13.6471 19.2002 14.5407C21.2087 15.4343 22.7491 16.6991 23.8213 18.3349C24.9086 19.9555 25.4523 21.8186 25.4523 23.9239C25.4523 27.1804 24.2442 29.8235 21.8279 31.8531C19.4268 33.8828 16.195 34.8976 12.1328 34.8976H0.172363V1.8176H22.4622V7.97466ZM8.16864 19.3345V28.7632H12.246C13.8618 28.7632 15.1379 28.3089 16.0742 27.4001C17.0256 26.4913 17.5013 25.3174 17.5013 23.8785C17.5013 22.5153 17.0332 21.4172 16.0969 20.5842C15.1606 19.7511 13.8618 19.3345 12.2007 19.3345H8.16864ZM41.558 16.1765V16.1992L47.0172 1.8176H55.3985L44.2989 28.0589C43.1059 30.7096 41.7618 32.5802 40.2668 33.6708C38.7869 34.7461 37.0502 35.3141 35.0568 35.3747H33.4485L32.2253 35.3292L32.0894 29.1495C32.2705 29.2101 32.7991 29.2404 33.675 29.2404C34.8831 29.2404 35.7892 29.0359 36.3933 28.627C37.0124 28.2029 37.5108 27.3925 37.8884 26.1959L38.2734 25.1053L26.3583 1.8176H34.8076L41.558 16.1765ZM78.9567 4.63485C83.2456 4.63485 86.6585 5.9223 89.1953 8.49719C91.7477 11.057 93.0242 14.4119 93.0242 18.562C93.0242 20.5917 92.684 22.4396 92.0043 24.1057C91.3402 25.7567 90.4038 27.1653 89.1953 28.3316C86.6438 30.8308 83.2309 32.0804 78.9567 32.0804V36.2608H71.3003V32.0804C66.9662 32.0804 63.523 30.8308 60.971 28.3316C58.4188 25.8324 57.1427 22.5911 57.1427 18.6075C57.1427 16.5022 57.4825 14.5937 58.1621 12.8821C58.8417 11.1706 59.793 9.70891 61.0163 8.49719C63.5835 5.9223 67.0116 4.63485 71.3003 4.63485V0.454407H78.9567V4.63485ZM117.443 20.8795H104.939V28.7632H119.708V34.8976H96.9884V1.8176H119.754V7.97466H104.939V14.9496H117.443V20.8795ZM149.292 7.97466H139.393V34.8976H131.442V7.97466H121.724V1.8176H149.292V7.97466ZM89.6909 18.2243C89.6909 22.7214 86.0561 26.3671 81.5723 26.3671C80.3483 26.3671 79.1875 26.0954 78.1467 25.6088C76.2563 27.5142 73.6393 28.6936 70.7476 28.6936C64.9828 28.6936 60.3094 24.0063 60.3094 18.2243C60.3094 12.4423 64.9828 7.75504 70.7476 7.75504C73.6393 7.75504 76.2563 8.93443 78.1467 10.8398C79.1875 10.3532 80.3483 10.0815 81.5723 10.0815C86.0561 10.0815 89.6909 13.7272 89.6909 18.2243Z" fill="#ffffff"/>
</svg>
