<svg width="98" height="16" viewBox="0 0 98 16" fill="none" xmlns="http://www.w3.org/2000/svg">
<path fill-rule="evenodd" clip-rule="evenodd" d="M12.067 0.0488862H0V15.6707H4.77435V10.0541H11.0596V6.36809H4.77435V3.97622H12.067V0.0488862ZM95.4321 0C96.8502 0 98 1.15194 98 2.57275C98 3.994 96.8502 5.14594 95.4321 5.14594C94.0135 5.14594 92.8637 3.994 92.8637 2.57275C92.8637 1.15194 94.0135 0 95.4321 0ZM92.8482 11.1292H88.709C88.5338 12.2478 87.9647 12.7966 86.979 12.7966C85.7525 12.7966 85.0956 11.8749 85.0956 10.1199C85.0956 8.18888 85.7525 7.15782 87.0008 7.15782C87.8551 7.15782 88.4899 7.72801 88.6216 8.62796H92.7603C92.5416 5.90723 90.2203 4.08599 86.9573 4.08599C83.256 4.08599 80.7595 6.49964 80.7595 10.0977C80.7595 13.5864 83.2782 15.956 86.9351 15.956C90.2421 15.956 92.4321 14.1788 92.8482 11.1292ZM73.6944 4.02022C69.9935 4.02022 67.4309 6.45564 67.4309 10.0101C67.4309 13.5646 69.9714 16 73.6505 16C77.3079 16 79.8483 13.5206 79.8483 9.96611C79.8483 6.43386 77.3296 4.02022 73.6944 4.02022ZM73.6066 7.15782C75.2275 7.15782 75.5122 8.69374 75.5122 9.96611C75.5122 11.2167 75.2714 12.8842 73.6505 12.8842C72.0518 12.8842 71.7675 11.2607 71.7675 10.0101C71.7675 8.10133 72.3805 7.15782 73.6066 7.15782ZM51.5841 0.0488862V15.6707H58.4607C63.5633 15.6707 66.4102 13.0157 66.4102 7.81601C66.4102 2.94517 63.3224 0.0488862 58.548 0.0488862H51.5841ZM56.2707 3.97622H57.6941C60.1467 3.97622 61.658 5.24904 61.658 7.90356C61.658 10.2514 60.4972 11.7216 58.1541 11.7216H56.2707V3.97622ZM50.8478 4.34954H46.3804L45.5482 7.72801C45.1539 9.3297 45.0004 10.0319 44.7378 11.9629C44.4747 10.0759 44.4313 9.74657 43.9713 7.66224L43.2265 4.34954H39.1973L38.5399 7.35515C38.19 8.95683 38.0365 9.81234 37.7078 12.0064C37.4234 9.92211 37.2482 9.1106 36.8539 7.53069L36.0434 4.34954H31.5543L35.1239 15.6707H39.5473L40.4456 11.9629C40.7739 10.5803 40.9273 9.81234 41.1899 7.90356C41.4091 9.79057 41.5186 10.471 41.9126 11.9629L42.8765 15.6707H47.2782L50.8478 4.34954ZM25.3432 4.02022C21.6423 4.02022 19.0797 6.45564 19.0797 10.0101C19.0797 13.5646 21.6201 16 25.2992 16C28.9566 16 31.4971 13.5206 31.4971 9.96611C31.4971 6.43386 28.9784 4.02022 25.3432 4.02022ZM25.2553 7.15782C26.8762 7.15782 27.161 8.69374 27.161 9.96611C27.161 11.2167 26.9201 12.8842 25.2992 12.8842C23.7005 12.8842 23.4162 11.2607 23.4162 10.0101C23.4162 8.10133 24.0292 7.15782 25.2553 7.15782ZM17.6207 0.0488862H13.2846V15.6707H17.6207V0.0488862Z" fill="#2BA3D4"/>
</svg>
