<svg width="30" height="30" viewBox="0 0 30 30" fill="none" xmlns="http://www.w3.org/2000/svg">
<path d="M15 30C23.2843 30 30 23.2843 30 15C30 6.71573 23.2843 0 15 0C6.71573 0 0 6.71573 0 15C0 23.2843 6.71573 30 15 30Z" fill="#ECEFF1"/>
<path d="M25.9144 23.7713C25.2619 23.2556 24.4669 22.8844 23.6044 22.7044L19.4926 21.8794C19.0613 21.7969 18.7501 21.4106 18.7501 20.9606V20.0175C19.0144 19.6462 19.2638 19.1531 19.5244 18.6375C19.7269 18.2381 20.0326 17.6362 20.1844 17.4806C21.0169 16.6444 21.8213 15.705 22.0707 14.4937C22.3032 13.3575 22.0744 12.7613 21.8063 12.2812C21.8063 11.0831 21.7688 9.58312 21.4857 8.49187C21.4519 7.01437 21.1838 6.18375 20.5088 5.45625C20.0326 4.94063 19.3313 4.82062 18.7669 4.725C18.5457 4.6875 18.2401 4.635 18.1276 4.575C17.1282 4.035 16.1401 3.77062 14.9607 3.75C12.4913 3.85125 9.45568 5.4225 8.43943 8.22375C8.12443 9.07688 8.15631 10.4775 8.18256 11.6025L8.15818 12.2794C7.91631 12.7519 7.67818 13.3519 7.91256 14.4919C8.16006 15.705 8.96443 16.6462 9.81193 17.4937C9.95068 17.6362 10.2638 18.2438 10.4701 18.645C10.7344 19.1588 10.9857 19.65 11.2501 20.0194V20.9625C11.2501 21.4106 10.9369 21.7969 10.5038 21.8813L6.38818 22.7062C5.53131 22.8881 4.73631 23.2556 4.08568 23.7713C3.88318 23.9344 3.75568 24.1725 3.73506 24.4312C3.71443 24.69 3.80068 24.9431 3.97506 25.1362C6.77631 28.2262 10.7944 30 15.0001 30C19.2057 30 23.2257 28.2281 26.0251 25.1362C26.1994 24.9431 26.2876 24.6881 26.2651 24.4294C26.2444 24.1706 26.1169 23.9325 25.9144 23.7713Z" fill="#455A64"/>
</svg>
