<?xml version="1.0" standalone="no"?>
<!DOCTYPE svg PUBLIC "-//W3C//DTD SVG 20010904//EN"
 "http://www.w3.org/TR/2001/REC-SVG-20010904/DTD/svg10.dtd">
<svg version="1.0" xmlns="http://www.w3.org/2000/svg"
 width="615.000000pt" height="615.000000pt" viewBox="0 0 615.000000 615.000000"
 preserveAspectRatio="xMidYMid meet">
<metadata>
Created by potrace 1.11, written by Peter Selinger 2001-2013
</metadata>
<g transform="translate(0.000000,615.000000) scale(0.100000,-0.100000)"
fill="#000000" stroke="none">
<path d="M0 3085 c0 -261 3 -475 8 -476 9 -1 601 -1 630 0 21 1 22 5 22 85 0
72 -3 84 -17 87 -10 3 -107 4 -215 3 l-198 -1 0 114 0 113 180 0 180 0 1 45
c1 25 1 54 1 65 0 65 16 60 -182 60 l-180 0 0 100 0 100 33 1 c17 0 114 0 214
0 l183 0 0 89 0 90 -330 0 -330 0 0 -475z"/>
<path d="M753 3083 l2 -477 108 1 c59 0 111 3 114 7 3 3 6 135 6 292 0 285 0
286 19 257 10 -15 23 -37 29 -48 5 -11 19 -36 30 -55 12 -19 73 -127 137 -240
64 -113 117 -207 119 -209 2 -3 151 -5 211 -2 l22 1 0 475 0 475 -115 0 -115
0 0 -297 c0 -254 -2 -294 -13 -273 -16 30 -186 330 -216 380 -11 19 -39 70
-63 112 l-43 78 -117 0 -116 0 1 -477z"/>
<path d="M1699 3548 c-1 -7 -2 -221 -3 -475 l-1 -463 25 -1 c108 -4 398 -1
452 5 82 9 172 51 210 99 35 45 57 122 53 190 -5 82 -35 131 -106 172 -24 13
-38 25 -32 25 24 0 92 71 104 107 39 120 -3 243 -102 297 -80 44 -154 55 -386
56 -167 0 -213 -2 -214 -12z m455 -197 c47 -44 39 -143 -15 -172 -29 -15 -200
-24 -208 -11 -3 6 -6 54 -5 108 0 116 -3 113 125 103 63 -4 84 -10 103 -28z
m-8 -352 c48 -15 71 -76 53 -141 -14 -55 -51 -71 -171 -74 -85 -2 -98 0 -99
14 0 10 -1 60 -2 112 -1 90 0 95 22 100 33 8 162 1 197 -11z"/>
<path d="M2564 3083 l0 -478 328 0 328 0 1 25 c4 110 3 150 -6 153 -5 1 -101
2 -212 1 -112 0 -204 2 -204 5 -1 3 -2 54 -3 114 l-1 107 180 0 181 0 0 85 1
85 -179 0 c-98 0 -179 3 -179 8 -1 4 -2 49 -3 100 l-2 92 55 1 c31 0 128 1
216 2 l160 2 1 75 c0 41 -2 81 -4 88 -3 9 -78 12 -331 12 l-327 0 0 -477z"/>
<path d="M3319 3558 c-5 -13 -3 -935 2 -943 6 -8 75 -10 199 -6 l26 1 0 124 1
124 44 50 c24 27 47 48 50 46 3 -2 50 -80 104 -174 60 -105 104 -170 114 -171
81 -5 251 -2 251 4 0 4 -70 123 -155 263 -85 140 -155 259 -155 264 0 5 6 15
13 22 6 7 29 36 49 63 21 28 41 55 45 60 61 77 203 265 203 269 0 3 -62 6
-138 6 l-139 0 -79 -116 c-43 -64 -84 -121 -89 -127 -6 -7 -30 -42 -53 -79
-24 -37 -49 -71 -55 -77 -9 -7 -12 40 -11 195 l1 204 -113 0 c-63 0 -114 -1
-115 -2z"/>
<path d="M4575 3083 l0 -476 85 0 c47 1 99 2 116 2 l30 1 0 124 -1 125 47 50
c47 51 48 51 62 28 7 -12 50 -87 95 -167 46 -80 86 -149 91 -154 9 -9 256 -13
265 -4 3 3 -43 85 -102 182 -60 97 -129 211 -155 254 -26 42 -47 82 -48 88 0
10 35 59 102 145 97 124 208 270 208 274 0 3 -63 5 -139 5 l-140 0 -88 -127
c-48 -71 -110 -161 -137 -200 -27 -40 -52 -73 -55 -73 -4 0 -6 90 -6 200 l1
200 -116 0 -115 0 0 -477z"/>
<path d="M5402 3471 l0 -89 197 -1 c108 0 211 0 229 -1 l33 0 -18 -24 c-10
-13 -24 -32 -31 -42 -7 -11 -74 -107 -149 -214 -273 -392 -260 -371 -259 -428
1 -28 5 -54 9 -58 4 -4 171 -8 372 -8 l366 -1 -3 89 -3 90 -222 0 c-123 0
-223 2 -223 6 0 3 21 35 48 72 26 37 85 123 132 193 99 146 215 315 228 331
25 29 36 64 37 117 l1 57 -372 0 -372 0 0 -89z"/>
<path d="M4229 2797 c-89 -60 -41 -197 69 -197 97 0 154 86 112 166 -30 56
-121 72 -181 31z"/>
</g>
</svg>
